<?xml version="1.0" encoding="UTF-8" standalone="no"?>
<svg xmlns="http://www.w3.org/2000/svg" width="520" height="120" viewBox="0 0 137.58333 31.750001" version="1.1" >
  <g transform="translate(-83.677483,-183.7807)">
   <path style="fill:#ffdf00" d="m 86.323316,190.22767 c 0,-2.89336 4.69097,-5.2378 10.475587,-5.2378 5.784627,0 10.475587,2.34444 10.475587,5.2378 0,0.0838 -0.0419,0.16132 -0.0503,0.24513 h 0.0503 v 18.58788 l -0.11732,0.74795 c -0.58664,2.53509 -4.97172,4.51289 -10.358267,4.51289 -5.386543,0 -9.771627,-1.9778 -10.358256,-4.51289 l -0.117331,-0.74795 V 190.4728 h 0.05028 c -0.0084,-0.0838 -0.05028,-0.16133 -0.05028,-0.24513 z m 10.475587,-3.07564 c -5.116276,0 -8.380469,2.0197 -8.380469,3.07564 0,1.05594 3.264193,3.07563 8.380469,3.07563 5.116277,0 8.380477,-2.02807 8.380477,-3.07563 0,-1.04757 -3.2642,-3.07564 -8.380477,-3.07564 z m -8.380469,21.91074 0.06285,0.27447 c 0.240937,1.03707 3.224388,2.88916 8.317614,2.88916 5.093242,0 8.076692,-1.85209 8.317622,-2.88916 l 0.0629,-0.27447 v -15.71338 c -2.53703,1.48404 -5.443042,2.21779 -8.380482,2.11607 -2.938255,0.0992 -5.844327,-0.63751 -8.380469,-2.12445 v 15.71338 z" />
   <path d="m 218.82455,210.23377 q 0,0.11209 -0.0767,0.18878 -0.0767,0.0708 -0.19467,0.0708 h -2.24173 q 0.0649,0.41295 0.37165,0.66662 0.31266,0.25367 0.76101,0.25367 0.17698,0 0.36576,-0.0649 0.19467,-0.0649 0.31856,-0.15929 0.0826,-0.0649 0.19468,-0.0649 0.11208,0 0.17697,0.059 0.10619,0.0885 0.10619,0.20058 0,0.10619 -0.0944,0.17698 -0.20057,0.15928 -0.50144,0.25957 -0.29496,0.10029 -0.56633,0.10029 -0.48374,0 -0.86719,-0.20648 -0.38346,-0.21237 -0.60173,-0.58403 -0.21238,-0.37165 -0.21238,-0.8436 0,-0.47194 0.20058,-0.8436 0.20647,-0.37755 0.56633,-0.58403 0.36576,-0.21237 0.8259,-0.21237 0.45425,0 0.78461,0.20058 0.33036,0.20057 0.50734,0.56043 0.17698,0.35985 0.17698,0.8259 z m -1.46893,-1.07957 q -0.43065,0 -0.70201,0.23597 -0.26547,0.23597 -0.33626,0.63122 h 1.96446 q -0.0531,-0.39525 -0.29496,-0.63122 -0.24188,-0.23597 -0.63123,-0.23597 z m -2.7911,-1.86418 q 0.13568,0 0.21827,0.0826 0.0826,0.0826 0.0826,0.21828 v 2.69007 q 0,0.46015 -0.21827,0.8377 -0.21238,0.37166 -0.58403,0.58993 -0.36576,0.21238 -0.82,0.21238 -0.45425,0 -0.8318,-0.21238 -0.37166,-0.21827 -0.58403,-0.58993 -0.21238,-0.37755 -0.21238,-0.8377 0,-0.46014 0.19468,-0.8318 0.20057,-0.37755 0.54273,-0.58993 0.34806,-0.21237 0.77281,-0.21237 0.34216,0 0.63712,0.14158 0.29497,0.14159 0.50144,0.39525 v -1.5928 q 0,-0.13569 0.0826,-0.21828 0.0885,-0.0826 0.21828,-0.0826 z m -1.32144,4.10001 q 0.29496,0 0.53093,-0.14158 0.24187,-0.14749 0.37756,-0.40115 0.13568,-0.25367 0.13568,-0.56634 0,-0.31266 -0.13568,-0.56043 -0.13569,-0.25367 -0.37756,-0.39525 -0.23597,-0.14748 -0.53093,-0.14748 -0.29497,0 -0.53684,0.14748 -0.23597,0.14158 -0.37755,0.39525 -0.13569,0.24777 -0.13569,0.56043 0,0.31267 0.13569,0.56634 0.14158,0.25366 0.37755,0.40115 0.24187,0.14158 0.53684,0.14158 z m -3.98664,0.53094 q -0.47194,0 -0.8436,-0.20648 -0.37165,-0.21237 -0.57813,-0.58403 -0.20647,-0.37165 -0.20647,-0.8436 0,-0.47784 0.20647,-0.8495 0.20648,-0.37165 0.57813,-0.57813 0.37166,-0.21237 0.8436,-0.21237 0.46605,0 0.8318,0.21237 0.37166,0.20648 0.57813,0.57813 0.21238,0.37166 0.21238,0.8495 0,0.47195 -0.20648,0.8436 -0.20647,0.37166 -0.57813,0.58403 -0.36575,0.20648 -0.8377,0.20648 z m 0,-0.53094 q 0.30087,0 0.53684,-0.14158 0.24187,-0.14159 0.37165,-0.38936 0.13569,-0.25367 0.13569,-0.57223 0,-0.31856 -0.13569,-0.57223 -0.12978,-0.25367 -0.37165,-0.39525 -0.23597,-0.14158 -0.53684,-0.14158 -0.30086,0 -0.54273,0.14158 -0.23597,0.14158 -0.37166,0.39525 -0.13568,0.25367 -0.13568,0.57223 0,0.31856 0.13568,0.57223 0.13569,0.24777 0.37166,0.38936 0.24187,0.14158 0.54273,0.14158 z m -3.69462,0.56633 q -0.63122,0 -1.15626,-0.31266 -0.51913,-0.31266 -0.82,-0.8554 -0.30086,-0.54273 -0.30086,-1.19755 0,-0.64893 0.30086,-1.18576 0.30087,-0.54274 0.82,-0.8554 0.52504,-0.31856 1.15626,-0.31856 0.44835,0 0.77281,0.11798 0.33036,0.11799 0.66662,0.38936 0.0708,0.0531 0.0944,0.11208 0.0236,0.0531 0.0236,0.12979 0,0.11799 -0.0885,0.19468 -0.0826,0.0767 -0.19468,0.0767 -0.11209,0 -0.20647,-0.0767 -0.24187,-0.20648 -0.47195,-0.29497 -0.23007,-0.0944 -0.59583,-0.0944 -0.46014,0 -0.84949,0.24187 -0.38346,0.24187 -0.61353,0.66072 -0.22417,0.41295 -0.22417,0.9026 0,0.49554 0.22417,0.90849 0.23007,0.41295 0.61353,0.65482 0.38935,0.24187 0.84949,0.24187 0.56634,0 1.08547,-0.38935 0.10029,-0.0708 0.19468,-0.0708 0.11209,0 0.18288,0.0826 0.0767,0.0767 0.0767,0.20648 0,0.12389 -0.0944,0.21827 -0.63712,0.51324 -1.44533,0.51324 z m -4.65749,0 q -0.57223,0 -1.04417,-0.25957 -0.46605,-0.25957 -0.64302,-0.67842 -0.0295,-0.0708 -0.0295,-0.11798 0,-0.0885 0.0649,-0.15338 0.0649,-0.0708 0.17698,-0.0944 0.0177,-0.006 0.059,-0.006 0.0944,0 0.17698,0.059 0.0885,0.0531 0.12979,0.14748 0.10618,0.23008 0.41885,0.38936 0.31266,0.15928 0.69021,0.15928 0.44245,0 0.74921,-0.20058 0.30677,-0.20647 0.30677,-0.56043 0,-0.33626 -0.25957,-0.57223 -0.25957,-0.24187 -0.79051,-0.29497 -0.73151,-0.0708 -1.15036,-0.42474 -0.41885,-0.35986 -0.41885,-0.8967 0,-0.37755 0.21238,-0.64892 0.21827,-0.27727 0.58992,-0.41885 0.37756,-0.14748 0.8436,-0.14748 0.50734,0 0.8554,0.20647 0.34806,0.20648 0.58993,0.58993 0.0708,0.11209 0.0708,0.21238 0,0.12978 -0.11798,0.21237 -0.0649,0.0413 -0.15339,0.0413 -0.0885,0 -0.16518,-0.0413 -0.0767,-0.0472 -0.11798,-0.12388 -0.15928,-0.26547 -0.40115,-0.40116 -0.23598,-0.14158 -0.60173,-0.14158 -0.44835,0 -0.72561,0.17698 -0.27727,0.17108 -0.27727,0.50144 0,0.30676 0.24777,0.51324 0.24777,0.20647 0.88489,0.27137 0.70792,0.0708 1.09727,0.43064 0.38935,0.35396 0.38935,0.93799 0,0.42475 -0.23007,0.73151 -0.23007,0.30087 -0.61352,0.45425 -0.37756,0.14748 -0.81411,0.14748 z m -2.44424,-4.66634 q 0.12979,0 0.20058,0.0708 0.0767,0.0708 0.0767,0.18288 0,0.0708 -0.0354,0.15338 l -1.7462,4.00562 q -0.0767,0.19468 -0.27726,0.19468 -0.18878,0 -0.27727,-0.19468 l -1.72849,-3.95252 q -0.0472,-0.12389 -0.0472,-0.20648 0,-0.11798 0.0708,-0.18288 0.0767,-0.0708 0.20647,-0.0708 0.20648,0 0.28317,0.18288 l 1.48662,3.56317 1.51022,-3.56317 q 0.0413,-0.10619 0.10618,-0.14158 0.0649,-0.0413 0.17108,-0.0413 z m -6.43788,1.34504 q 0.31266,0 0.48964,0.0944 0.17698,0.0944 0.17698,0.23597 0,0.0413 -0.006,0.059 -0.0531,0.18878 -0.23597,0.18878 -0.0295,0 -0.0885,-0.0118 -0.23597,-0.0413 -0.38345,-0.0413 -0.42475,0 -0.68432,0.19467 -0.25957,0.19468 -0.25957,0.52504 v 1.72259 q 0,0.14159 -0.0767,0.21828 -0.0708,0.0767 -0.21828,0.0767 -0.14158,0 -0.21827,-0.0708 -0.0767,-0.0767 -0.0767,-0.22418 v -2.63698 q 0,-0.14158 0.0767,-0.21827 0.0767,-0.0767 0.21827,-0.0767 0.29497,0 0.29497,0.29496 v 0.11209 q 0.17698,-0.20648 0.43655,-0.32446 0.25957,-0.11799 0.55453,-0.11799 z m -4.10461,3.28591 q -0.47195,0 -0.8436,-0.20648 -0.37166,-0.21237 -0.57813,-0.58403 -0.20648,-0.37165 -0.20648,-0.8436 0,-0.47784 0.20648,-0.8495 0.20647,-0.37165 0.57813,-0.57813 0.37165,-0.21237 0.8436,-0.21237 0.46604,0 0.8318,0.21237 0.37165,0.20648 0.57813,0.57813 0.21237,0.37166 0.21237,0.8495 0,0.47195 -0.20647,0.8436 -0.20648,0.37166 -0.57813,0.58403 -0.36576,0.20648 -0.8377,0.20648 z m 0,-0.53094 q 0.30086,0 0.53683,-0.14158 0.24187,-0.14159 0.37166,-0.38936 0.13568,-0.25367 0.13568,-0.57223 0,-0.31856 -0.13568,-0.57223 -0.12979,-0.25367 -0.37166,-0.39525 -0.23597,-0.14158 -0.53683,-0.14158 -0.30087,0 -0.54274,0.14158 -0.23597,0.14158 -0.37165,0.39525 -0.13569,0.25367 -0.13569,0.57223 0,0.31856 0.13569,0.57223 0.13568,0.24777 0.37165,0.38936 0.24187,0.14158 0.54274,0.14158 z m -2.12172,-3.55727 q -0.33036,0 -0.53094,0.21827 -0.20057,0.21827 -0.20057,0.57813 v 0.15928 h 0.60173 q 0.12388,0 0.20057,0.0708 0.0767,0.0708 0.0767,0.18878 0,0.10619 -0.0767,0.17698 -0.0767,0.0708 -0.20057,0.0708 h -0.60173 v 2.30073 q 0,0.13568 -0.0826,0.21827 -0.0826,0.0826 -0.23007,0.0826 -0.11799,0 -0.20648,-0.0826 -0.0826,-0.0826 -0.0826,-0.21827 v -2.30073 h -0.25367 q -0.12388,0 -0.20058,-0.0708 -0.0767,-0.0708 -0.0767,-0.17698 0,-0.11798 0.0767,-0.18878 0.0767,-0.0708 0.20058,-0.0708 h 0.25367 v -0.10029 q 0,-0.41885 0.16518,-0.73151 0.17108,-0.31856 0.47194,-0.48964 0.30677,-0.17698 0.69612,-0.17698 0.12978,0 0.21238,0.0767 0.0885,0.0767 0.0885,0.19468 0,0.11799 -0.0885,0.19468 -0.0826,0.0767 -0.21238,0.0767 z m -4.10803,3.47468 q 0.10619,0 0.17698,0.0826 0.0767,0.0826 0.0767,0.21237 0,0.12979 -0.10029,0.21238 -0.0944,0.0826 -0.24777,0.0826 h -0.10619 q -0.28906,0 -0.53093,-0.14748 -0.23597,-0.15338 -0.37166,-0.41295 -0.13568,-0.25957 -0.13568,-0.58403 v -1.45713 h -0.27137 q -0.12388,0 -0.20057,-0.0708 -0.0767,-0.0708 -0.0767,-0.17698 0,-0.11798 0.0767,-0.18878 0.0767,-0.0708 0.20057,-0.0708 h 0.27137 v -0.8495 q 0,-0.12978 0.0826,-0.21237 0.0826,-0.0826 0.21237,-0.0826 0.12979,0 0.21238,0.0826 0.0826,0.0826 0.0826,0.21237 v 0.8495 h 0.50144 q 0.12388,0 0.20057,0.0708 0.0767,0.0708 0.0767,0.18878 0,0.10619 -0.0767,0.17698 -0.0767,0.0708 -0.20057,0.0708 h -0.50144 v 1.45713 q 0,0.23597 0.12978,0.39525 0.12979,0.15928 0.31856,0.15928 z m -3.79112,-2.66648 q 0.40705,0 0.73151,0.17698 0.32446,0.17698 0.50734,0.51914 0.18288,0.33626 0.18288,0.8141 v 1.45122 q 0,0.12979 -0.0885,0.21828 -0.0826,0.0826 -0.21238,0.0826 -0.12978,0 -0.21827,-0.0826 -0.0826,-0.0885 -0.0826,-0.21828 v -1.45122 q 0,-0.47784 -0.25957,-0.71971 -0.25367,-0.24778 -0.67842,-0.24778 -0.24777,0 -0.45424,0.10029 -0.20058,0.10029 -0.31856,0.27137 -0.11209,0.17108 -0.11209,0.38345 v 1.6636 q 0,0.12979 -0.0826,0.21828 -0.0826,0.0826 -0.21828,0.0826 -0.12978,0 -0.21827,-0.0826 -0.0826,-0.0885 -0.0826,-0.21828 v -2.63108 q 0,-0.13568 0.0826,-0.21827 0.0885,-0.0826 0.21827,-0.0826 0.13569,0 0.21828,0.0826 0.0826,0.0826 0.0826,0.21827 v 0.0649 q 0.18878,-0.18877 0.44835,-0.28906 0.25956,-0.10619 0.55453,-0.10619 z m -2.37207,1.59281 q 0,0.11209 -0.0767,0.18878 -0.0767,0.0708 -0.19468,0.0708 h -2.24173 q 0.0649,0.41295 0.37165,0.66662 0.31267,0.25367 0.76101,0.25367 0.17698,0 0.36576,-0.0649 0.19468,-0.0649 0.31856,-0.15929 0.0826,-0.0649 0.19468,-0.0649 0.11208,0 0.17698,0.059 0.10618,0.0885 0.10618,0.20058 0,0.10619 -0.0944,0.17698 -0.20057,0.15928 -0.50144,0.25957 -0.29496,0.10029 -0.56633,0.10029 -0.48374,0 -0.86719,-0.20648 -0.38346,-0.21237 -0.60173,-0.58403 -0.21238,-0.37165 -0.21238,-0.8436 0,-0.47194 0.20058,-0.8436 0.20648,-0.37755 0.56633,-0.58403 0.36576,-0.21237 0.8259,-0.21237 0.45425,0 0.78461,0.20058 0.33036,0.20057 0.50734,0.56043 0.17698,0.35985 0.17698,0.8259 z m -1.46893,-1.07957 q -0.43065,0 -0.70201,0.23597 -0.26547,0.23597 -0.33626,0.63122 h 1.96446 q -0.0531,-0.39525 -0.29496,-0.63122 -0.24187,-0.23597 -0.63123,-0.23597 z m -3.56612,-0.51324 q 0.51324,0 0.8259,0.33626 0.31856,0.33626 0.31856,0.93799 v 1.68719 q 0,0.12979 -0.0826,0.21828 -0.0826,0.0826 -0.21827,0.0826 -0.12978,0 -0.21827,-0.0826 -0.0826,-0.0885 -0.0826,-0.21828 v -1.68719 q 0,-0.35986 -0.18288,-0.54274 -0.17698,-0.18878 -0.47784,-0.18878 -0.30677,0 -0.50734,0.21238 -0.19468,0.21237 -0.19468,0.54273 v 1.6636 q 0,0.12979 -0.0826,0.21828 -0.0826,0.0826 -0.21827,0.0826 -0.12979,0 -0.21828,-0.0826 -0.0826,-0.0885 -0.0826,-0.21828 v -1.68719 q 0,-0.35986 -0.18288,-0.54274 -0.17698,-0.18878 -0.47784,-0.18878 -0.31266,0 -0.51324,0.21238 -0.19467,0.21237 -0.19467,0.54273 v 1.6636 q 0,0.12979 -0.0826,0.21828 -0.0826,0.0826 -0.21828,0.0826 -0.12978,0 -0.21827,-0.0826 -0.0826,-0.0885 -0.0826,-0.21828 v -2.62518 q 0,-0.13568 0.0826,-0.21827 0.0885,-0.0826 0.21827,-0.0826 0.12979,0 0.21238,0.0826 0.0826,0.0767 0.0885,0.20647 0.15338,-0.15338 0.36575,-0.23597 0.21238,-0.0885 0.46015,-0.0885 0.30086,0 0.53683,0.12389 0.24187,0.11798 0.39526,0.34215 0.17697,-0.21827 0.44244,-0.34215 0.26547,-0.12389 0.58993,-0.12389 z m -4.15955,1.59281 q 0,0.11209 -0.0767,0.18878 -0.0767,0.0708 -0.19468,0.0708 h -2.24173 q 0.0649,0.41295 0.37165,0.66662 0.31267,0.25367 0.76101,0.25367 0.17698,0 0.36576,-0.0649 0.19468,-0.0649 0.31856,-0.15929 0.0826,-0.0649 0.19468,-0.0649 0.11208,0 0.17698,0.059 0.10618,0.0885 0.10618,0.20058 0,0.10619 -0.0944,0.17698 -0.20058,0.15928 -0.50144,0.25957 -0.29497,0.10029 -0.56634,0.10029 -0.48374,0 -0.86719,-0.20648 -0.38346,-0.21237 -0.60173,-0.58403 -0.21238,-0.37165 -0.21238,-0.8436 0,-0.47194 0.20058,-0.8436 0.20648,-0.37755 0.56633,-0.58403 0.36576,-0.21237 0.8259,-0.21237 0.45425,0 0.78461,0.20058 0.33036,0.20057 0.50734,0.56043 0.17698,0.35985 0.17698,0.8259 z m -1.46893,-1.07957 q -0.43064,0 -0.70201,0.23597 -0.26547,0.23597 -0.33626,0.63122 h 1.96446 q -0.0531,-0.39525 -0.29496,-0.63122 -0.24187,-0.23597 -0.63123,-0.23597 z m -3.95123,-0.50734 q 0.46604,0 0.8318,0.21237 0.37165,0.20648 0.57813,0.57813 0.21237,0.37166 0.21237,0.8495 v 1.27425 q 0,0.46604 -0.20647,0.8495 -0.20648,0.38345 -0.58403,0.60173 -0.37166,0.22417 -0.8436,0.22417 -0.42475,0 -0.79051,-0.17108 -0.36575,-0.16518 -0.61352,-0.47784 -0.0649,-0.0826 -0.0649,-0.16518 0,-0.12389 0.12389,-0.21238 0.0826,-0.0531 0.16518,-0.0531 0.14748,0 0.24187,0.12388 0.15928,0.20648 0.40115,0.31267 0.24187,0.11208 0.54864,0.11208 0.28906,0 0.52503,-0.14158 0.23598,-0.13568 0.37756,-0.40705 0.14158,-0.26547 0.14158,-0.63713 v -0.28906 q -0.18288,0.32446 -0.48374,0.50734 -0.30086,0.18288 -0.67842,0.18288 -0.43655,0 -0.78461,-0.20648 -0.34215,-0.21237 -0.53683,-0.58403 -0.18878,-0.37165 -0.18878,-0.8436 0,-0.47784 0.20648,-0.8495 0.20647,-0.37165 0.57813,-0.57813 0.37165,-0.21237 0.8436,-0.21237 z m 0,2.74317 q 0.30086,0 0.53683,-0.14158 0.24187,-0.14159 0.37166,-0.38936 0.13568,-0.25367 0.13568,-0.57223 0,-0.31856 -0.13568,-0.57223 -0.12979,-0.25367 -0.37166,-0.39525 -0.23597,-0.14158 -0.53683,-0.14158 -0.30087,0 -0.54274,0.14158 -0.23597,0.14158 -0.37165,0.39525 -0.13569,0.25367 -0.13569,0.57223 0,0.31856 0.13569,0.57223 0.13568,0.24777 0.37165,0.38936 0.24187,0.14158 0.54274,0.14158 z m -3.98663,-2.74317 q 0.45424,0 0.82,0.21827 0.37165,0.21238 0.58403,0.58993 0.21827,0.37166 0.21827,0.8318 v 1.31554 q 0,0.12979 -0.0885,0.21828 -0.0826,0.0826 -0.21237,0.0826 -0.12979,0 -0.21828,-0.0826 -0.0826,-0.0885 -0.0826,-0.21828 v -0.21827 q -0.20647,0.25367 -0.50144,0.39525 -0.29496,0.14159 -0.63712,0.14159 -0.42475,0 -0.77281,-0.21238 -0.34216,-0.21237 -0.54273,-0.58403 -0.19468,-0.37755 -0.19468,-0.8377 0,-0.46014 0.21238,-0.8318 0.21237,-0.37755 0.58403,-0.58993 0.37755,-0.21827 0.8318,-0.21827 z m 0,2.74317 q 0.29496,0 0.53093,-0.14158 0.24187,-0.14749 0.37756,-0.39526 0.13568,-0.25366 0.13568,-0.56633 0,-0.31266 -0.13568,-0.56633 -0.13569,-0.25367 -0.37756,-0.39525 -0.23597,-0.14748 -0.53093,-0.14748 -0.29497,0 -0.53684,0.14748 -0.23597,0.14158 -0.37755,0.39525 -0.13569,0.25367 -0.13569,0.56633 0,0.31267 0.13569,0.56633 0.14158,0.24777 0.37755,0.39526 0.24187,0.14158 0.53684,0.14158 z m -3.87962,-2.74907 q 0.40705,0 0.73151,0.17698 0.32446,0.17698 0.50734,0.51914 0.18288,0.33626 0.18288,0.8141 v 1.45122 q 0,0.12979 -0.0885,0.21828 -0.0826,0.0826 -0.21237,0.0826 -0.12979,0 -0.21828,-0.0826 -0.0826,-0.0885 -0.0826,-0.21828 v -1.45122 q 0,-0.47784 -0.25957,-0.71971 -0.25367,-0.24778 -0.67841,-0.24778 -0.24777,0 -0.45425,0.10029 -0.20058,0.10029 -0.31856,0.27137 -0.11209,0.17108 -0.11209,0.38345 v 1.6636 q 0,0.12979 -0.0826,0.21828 -0.0826,0.0826 -0.21827,0.0826 -0.12979,0 -0.21828,-0.0826 -0.0826,-0.0885 -0.0826,-0.21828 v -2.63108 q 0,-0.13568 0.0826,-0.21827 0.0885,-0.0826 0.21828,-0.0826 0.13568,0 0.21827,0.0826 0.0826,0.0826 0.0826,0.21827 v 0.0649 q 0.18878,-0.18877 0.44835,-0.28906 0.25957,-0.10619 0.55453,-0.10619 z m -4.12821,0.006 q 0.45424,0 0.82,0.21827 0.37166,0.21238 0.58403,0.58993 0.21827,0.37166 0.21827,0.8318 v 1.31554 q 0,0.12979 -0.0885,0.21828 -0.0826,0.0826 -0.21238,0.0826 -0.12978,0 -0.21827,-0.0826 -0.0826,-0.0885 -0.0826,-0.21828 v -0.21827 q -0.20648,0.25367 -0.50144,0.39525 -0.29497,0.14159 -0.63713,0.14159 -0.42475,0 -0.7728,-0.21238 -0.34216,-0.21237 -0.54274,-0.58403 -0.19468,-0.37755 -0.19468,-0.8377 0,-0.46014 0.21238,-0.8318 0.21237,-0.37755 0.58403,-0.58993 0.37755,-0.21827 0.8318,-0.21827 z m 0,2.74317 q 0.29496,0 0.53094,-0.14158 0.24187,-0.14749 0.37755,-0.39526 0.13568,-0.25366 0.13568,-0.56633 0,-0.31266 -0.13568,-0.56633 -0.13568,-0.25367 -0.37755,-0.39525 -0.23598,-0.14748 -0.53094,-0.14748 -0.29497,0 -0.53684,0.14748 -0.23597,0.14158 -0.37755,0.39525 -0.13568,0.25367 -0.13568,0.56633 0,0.31267 0.13568,0.56633 0.14158,0.24777 0.37755,0.39526 0.24187,0.14158 0.53684,0.14158 z m -3.60152,-2.74907 q 0.51324,0 0.8259,0.33626 0.31856,0.33626 0.31856,0.93799 v 1.68719 q 0,0.12979 -0.0826,0.21828 -0.0826,0.0826 -0.21827,0.0826 -0.12979,0 -0.21828,-0.0826 -0.0826,-0.0885 -0.0826,-0.21828 v -1.68719 q 0,-0.35986 -0.18287,-0.54274 -0.17698,-0.18878 -0.47785,-0.18878 -0.30676,0 -0.50734,0.21238 -0.19467,0.21237 -0.19467,0.54273 v 1.6636 q 0,0.12979 -0.0826,0.21828 -0.0826,0.0826 -0.21828,0.0826 -0.12978,0 -0.21827,-0.0826 -0.0826,-0.0885 -0.0826,-0.21828 v -1.68719 q 0,-0.35986 -0.18288,-0.54274 -0.17698,-0.18878 -0.47784,-0.18878 -0.31266,0 -0.51324,0.21238 -0.19468,0.21237 -0.19468,0.54273 v 1.6636 q 0,0.12979 -0.0826,0.21828 -0.0826,0.0826 -0.21827,0.0826 -0.12978,0 -0.21827,-0.0826 -0.0826,-0.0885 -0.0826,-0.21828 v -2.62518 q 0,-0.13568 0.0826,-0.21827 0.0885,-0.0826 0.21827,-0.0826 0.12978,0 0.21237,0.0826 0.0826,0.0767 0.0885,0.20647 0.15339,-0.15338 0.36576,-0.23597 0.21237,-0.0885 0.46015,-0.0885 0.30086,0 0.53683,0.12389 0.24187,0.11798 0.39525,0.34215 0.17698,-0.21827 0.44245,-0.34215 0.26547,-0.12389 0.58993,-0.12389 z m -5.88786,1.59281 q 0,0.11209 -0.0767,0.18878 -0.0767,0.0708 -0.19468,0.0708 h -2.24173 q 0.0649,0.41295 0.37166,0.66662 0.31266,0.25367 0.761,0.25367 0.17698,0 0.36576,-0.0649 0.19468,-0.0649 0.31856,-0.15929 0.0826,-0.0649 0.19468,-0.0649 0.11209,0 0.17698,0.059 0.10618,0.0885 0.10618,0.20058 0,0.10619 -0.0944,0.17698 -0.20058,0.15928 -0.50144,0.25957 -0.29497,0.10029 -0.56634,0.10029 -0.48374,0 -0.86719,-0.20648 -0.38346,-0.21237 -0.60173,-0.58403 -0.21237,-0.37165 -0.21237,-0.8436 0,-0.47194 0.20057,-0.8436 0.20648,-0.37755 0.56633,-0.58403 0.36576,-0.21237 0.8259,-0.21237 0.45425,0 0.78461,0.20058 0.33036,0.20057 0.50734,0.56043 0.17698,0.35985 0.17698,0.8259 z m -1.46893,-1.07957 q -0.43064,0 -0.70201,0.23597 -0.26547,0.23597 -0.33626,0.63122 h 1.96446 q -0.0531,-0.39525 -0.29496,-0.63122 -0.24187,-0.23597 -0.63123,-0.23597 z m -3.4568,2.76677 q -0.40115,0 -0.75511,-0.12389 -0.35395,-0.12388 -0.55453,-0.32446 -0.0767,-0.0767 -0.0767,-0.18288 0,-0.14158 0.11798,-0.23007 0.11209,-0.0826 0.20648,-0.0826 0.11799,0 0.22417,0.10619 0.11209,0.12388 0.33626,0.21827 0.22418,0.0885 0.47785,0.0885 0.33625,0 0.51913,-0.11209 0.18878,-0.11208 0.18878,-0.30086 0,-0.18288 -0.18288,-0.30086 -0.18288,-0.12389 -0.61942,-0.20648 -1.13267,-0.21827 -1.13267,-0.93209 0,-0.28906 0.17108,-0.48964 0.17108,-0.20057 0.44835,-0.30086 0.27726,-0.10029 0.58993,-0.10029 0.38345,0 0.68432,0.12388 0.30676,0.12389 0.48374,0.34216 0.0767,0.0944 0.0767,0.18878 0,0.10029 -0.10029,0.18288 -0.0649,0.0472 -0.16518,0.0472 -0.15338,0 -0.27727,-0.11208 -0.14748,-0.13569 -0.31266,-0.18878 -0.16518,-0.059 -0.40115,-0.059 -0.27137,0 -0.44835,0.0944 -0.17108,0.0885 -0.17108,0.25367 0,0.11799 0.059,0.20058 0.059,0.0767 0.22417,0.14748 0.16518,0.0649 0.47784,0.12979 0.64302,0.12978 0.90849,0.35985 0.27137,0.23008 0.27137,0.59583 0,0.27137 -0.14748,0.49554 -0.14748,0.21828 -0.43655,0.34806 -0.28317,0.12389 -0.68432,0.12389 z m -3.69756,-3.27411 q 0.45424,0 0.82,0.21827 0.37166,0.21238 0.58403,0.58993 0.21827,0.37166 0.21827,0.8318 v 1.31554 q 0,0.12979 -0.0885,0.21828 -0.0826,0.0826 -0.21237,0.0826 -0.12978,0 -0.21827,-0.0826 -0.0826,-0.0885 -0.0826,-0.21828 v -0.21827 q -0.20648,0.25367 -0.50144,0.39525 -0.29497,0.14159 -0.63713,0.14159 -0.42475,0 -0.7728,-0.21238 -0.34216,-0.21237 -0.54274,-0.58403 -0.19468,-0.37755 -0.19468,-0.8377 0,-0.46014 0.21238,-0.8318 0.21237,-0.37755 0.58403,-0.58993 0.37755,-0.21827 0.8318,-0.21827 z m 0,2.74317 q 0.29496,0 0.53093,-0.14158 0.24188,-0.14749 0.37756,-0.39526 0.13568,-0.25366 0.13568,-0.56633 0,-0.31266 -0.13568,-0.56633 -0.13568,-0.25367 -0.37756,-0.39525 -0.23597,-0.14748 -0.53093,-0.14748 -0.29497,0 -0.53684,0.14748 -0.23597,0.14158 -0.37755,0.39525 -0.13569,0.25367 -0.13569,0.56633 0,0.31267 0.13569,0.56633 0.14158,0.24777 0.37755,0.39526 0.24187,0.14158 0.53684,0.14158 z m -3.87068,-2.74317 q 0.42475,0 0.76691,0.21237 0.34806,0.21238 0.54274,0.58993 0.20057,0.37166 0.20057,0.8318 0,0.46015 -0.21237,0.8377 -0.21238,0.37166 -0.58993,0.58993 -0.37166,0.21238 -0.8259,0.21238 -0.45425,0 -0.8259,-0.21238 -0.36576,-0.21827 -0.58403,-0.58993 -0.21238,-0.37755 -0.21238,-0.8377 v -2.69007 q 0,-0.13569 0.0826,-0.21828 0.0885,-0.0826 0.21828,-0.0826 0.13568,0 0.21827,0.0826 0.0826,0.0826 0.0826,0.21828 v 1.5928 q 0.20648,-0.25366 0.50144,-0.39525 0.29496,-0.14158 0.63712,-0.14158 z m -0.11798,2.74317 q 0.29496,0 0.53093,-0.14158 0.24187,-0.14749 0.37756,-0.40115 0.14158,-0.25367 0.14158,-0.56634 0,-0.31266 -0.14158,-0.56043 -0.13569,-0.25367 -0.37756,-0.39525 -0.23597,-0.14748 -0.53093,-0.14748 -0.29497,0 -0.53684,0.14748 -0.23597,0.14158 -0.37165,0.39525 -0.13569,0.24777 -0.13569,0.56043 0,0.31267 0.13569,0.56634 0.13568,0.25366 0.37165,0.40115 0.24187,0.14158 0.53684,0.14158 z m -4.14591,-2.74317 q 0.45424,0 0.82,0.21827 0.37165,0.21238 0.58403,0.58993 0.21827,0.37166 0.21827,0.8318 v 1.31554 q 0,0.12979 -0.0885,0.21828 -0.0826,0.0826 -0.21237,0.0826 -0.12979,0 -0.21828,-0.0826 -0.0826,-0.0885 -0.0826,-0.21828 v -0.21827 q -0.20647,0.25367 -0.50144,0.39525 -0.29496,0.14159 -0.63712,0.14159 -0.42475,0 -0.77281,-0.21238 -0.34216,-0.21237 -0.54273,-0.58403 -0.19468,-0.37755 -0.19468,-0.8377 0,-0.46014 0.21238,-0.8318 0.21237,-0.37755 0.58403,-0.58993 0.37755,-0.21827 0.8318,-0.21827 z m 0,2.74317 q 0.29496,0 0.53093,-0.14158 0.24187,-0.14749 0.37756,-0.39526 0.13568,-0.25366 0.13568,-0.56633 0,-0.31266 -0.13568,-0.56633 -0.13569,-0.25367 -0.37756,-0.39525 -0.23597,-0.14748 -0.53093,-0.14748 -0.29497,0 -0.53684,0.14748 -0.23597,0.14158 -0.37755,0.39525 -0.13569,0.25367 -0.13569,0.56633 0,0.31267 0.13569,0.56633 0.14158,0.24777 0.37755,0.39526 0.24187,0.14158 0.53684,0.14158 z m -2.45051,-0.0826 q 0.10618,0 0.17697,0.0826 0.0767,0.0826 0.0767,0.21237 0,0.12979 -0.10028,0.21238 -0.0944,0.0826 -0.24777,0.0826 h -0.10619 q -0.28907,0 -0.53094,-0.14748 -0.23597,-0.15338 -0.37165,-0.41295 -0.13569,-0.25957 -0.13569,-0.58403 v -1.45713 h -0.27136 q -0.12389,0 -0.20058,-0.0708 -0.0767,-0.0708 -0.0767,-0.17698 0,-0.11798 0.0767,-0.18878 0.0767,-0.0708 0.20058,-0.0708 h 0.27136 v -0.8495 q 0,-0.12978 0.0826,-0.21237 0.0826,-0.0826 0.21238,-0.0826 0.12978,0 0.21237,0.0826 0.0826,0.0826 0.0826,0.21237 v 0.8495 h 0.50144 q 0.12389,0 0.20058,0.0708 0.0767,0.0708 0.0767,0.18878 0,0.10619 -0.0767,0.17698 -0.0767,0.0708 -0.20058,0.0708 h -0.50144 v 1.45713 q 0,0.23597 0.12979,0.39525 0.12978,0.15928 0.31856,0.15928 z m -3.89815,-2.66058 q 0.45425,0 0.82001,0.21827 0.37165,0.21238 0.58402,0.58993 0.21828,0.37166 0.21828,0.8318 v 1.31554 q 0,0.12979 -0.0885,0.21828 -0.0826,0.0826 -0.21238,0.0826 -0.12978,0 -0.21827,-0.0826 -0.0826,-0.0885 -0.0826,-0.21828 v -0.21827 q -0.20647,0.25367 -0.50144,0.39525 -0.29496,0.14159 -0.63712,0.14159 -0.42475,0 -0.77281,-0.21238 -0.34216,-0.21237 -0.54273,-0.58403 -0.19468,-0.37755 -0.19468,-0.8377 0,-0.46014 0.21237,-0.8318 0.21238,-0.37755 0.58403,-0.58993 0.37756,-0.21827 0.8318,-0.21827 z m 0,2.74317 q 0.29497,0 0.53094,-0.14158 0.24187,-0.14749 0.37755,-0.39526 0.13569,-0.25366 0.13569,-0.56633 0,-0.31266 -0.13569,-0.56633 -0.13568,-0.25367 -0.37755,-0.39525 -0.23597,-0.14748 -0.53094,-0.14748 -0.29496,0 -0.53683,0.14748 -0.23597,0.14158 -0.37756,0.39525 -0.13568,0.25367 -0.13568,0.56633 0,0.31267 0.13568,0.56633 0.14159,0.24777 0.37756,0.39526 0.24187,0.14158 0.53683,0.14158 z m -5.71761,0.50734 q -0.12978,0 -0.21827,-0.0885 -0.0885,-0.0885 -0.0885,-0.21827 v -3.99382 q 0,-0.13569 0.0885,-0.21828 0.0885,-0.0885 0.21827,-0.0885 h 1.06777 q 0.66662,0 1.18576,0.29497 0.51914,0.29496 0.8082,0.82 0.28907,0.51914 0.28907,1.18576 0,0.66662 -0.28907,1.19165 -0.28906,0.52504 -0.8082,0.82 -0.51914,0.29497 -1.18576,0.29497 z m 1.06777,-0.54274 q 0.48964,0 0.8731,-0.22417 0.38935,-0.22417 0.60173,-0.62532 0.21827,-0.40705 0.21827,-0.91439 0,-0.50734 -0.21827,-0.9085 -0.21238,-0.40115 -0.60173,-0.62532 -0.38346,-0.22417 -0.8731,-0.22417 h -0.76101 v 3.52187 z m 102.03139,-7.26141 q -1.55416,0 -2.92548,-0.47996 -1.37131,-0.47996 -2.1484,-1.25704 -0.29711,-0.29712 -0.29711,-0.70852 0,-0.54852 0.4571,-0.89135 0.43425,-0.31998 0.79994,-0.31998 0.4571,0 0.8685,0.4114 0.43425,0.47996 1.30275,0.84564 0.8685,0.34283 1.85128,0.34283 1.30276,0 2.01127,-0.43425 0.73137,-0.43425 0.73137,-1.16562 0,-0.70851 -0.70851,-1.16562 -0.70852,-0.47996 -2.39981,-0.79993 -4.38822,-0.84565 -4.38822,-3.61114 0,-1.11991 0.6628,-1.89699 0.66281,-0.77708 1.73701,-1.16563 1.0742,-0.38854 2.28553,-0.38854 1.48559,0 2.65121,0.47997 1.18848,0.47996 1.87414,1.3256 0.29712,0.36569 0.29712,0.73137 0,0.38854 -0.38854,0.70852 -0.25141,0.18284 -0.63995,0.18284 -0.59424,0 -1.0742,-0.43425 -0.57138,-0.52567 -1.21133,-0.73137 -0.63995,-0.22855 -1.55416,-0.22855 -1.05135,0 -1.73701,0.36568 -0.6628,0.34283 -0.6628,0.98278 0,0.45711 0.22855,0.77708 0.22855,0.29712 0.8685,0.57138 0.63995,0.25141 1.85128,0.50282 2.49123,0.50282 3.51972,1.39417 1.05135,0.89136 1.05135,2.30839 0,1.05135 -0.57139,1.91985 -0.57138,0.84564 -1.69129,1.34846 -1.09706,0.47996 -2.65122,0.47996 z m -8.45146,-0.0914 q -0.98278,0 -1.78272,-0.52567 -0.77708,-0.54853 -1.21133,-1.50845 -0.43425,-0.98278 -0.43425,-2.19411 v -12.479 q 0,-0.50282 0.31997,-0.82279 0.31998,-0.31998 0.8228,-0.31998 0.50281,0 0.82279,0.31998 0.31997,0.31997 0.31997,0.82279 v 12.479 q 0,0.84564 0.31998,1.39417 0.31997,0.54853 0.82279,0.54853 h 0.57138 q 0.45711,0 0.73137,0.31997 0.29712,0.31998 0.29712,0.8228 0,0.50281 -0.43425,0.82279 -0.43425,0.31997 -1.11991,0.31997 z m -12.74827,0.0914 q -1.82842,0 -3.26831,-0.79993 -1.43988,-0.8228 -2.23982,-2.26268 -0.79993,-1.43988 -0.79993,-3.26831 0,-1.85128 0.79993,-3.29116 0.79994,-1.43989 2.23982,-2.23982 1.43989,-0.8228 3.26831,-0.8228 1.80557,0 3.2226,0.8228 1.43989,0.79993 2.23982,2.23982 0.82279,1.43988 0.82279,3.29116 0,1.82843 -0.79993,3.26831 -0.79994,1.43988 -2.23982,2.26268 -1.41703,0.79993 -3.24546,0.79993 z m 0,-2.05698 q 1.16562,0 2.07984,-0.54852 0.93706,-0.54853 1.43988,-1.50845 0.52567,-0.98278 0.52567,-2.21697 0,-1.23419 -0.52567,-2.21696 -0.50282,-0.98278 -1.43988,-1.53131 -0.91422,-0.54853 -2.07984,-0.54853 -1.16562,0 -2.10269,0.54853 -0.91421,0.54853 -1.43988,1.53131 -0.52567,0.98277 -0.52567,2.21696 0,1.23419 0.52567,2.21697 0.52567,0.95992 1.43988,1.50845 0.93707,0.54852 2.10269,0.54852 z m -15.44519,2.05698 q -1.82842,0 -3.26831,-0.79993 -1.43988,-0.8228 -2.23982,-2.26268 -0.79993,-1.43988 -0.79993,-3.26831 0,-1.85128 0.79993,-3.29116 0.79994,-1.43989 2.23982,-2.23982 1.43989,-0.8228 3.26831,-0.8228 1.80557,0 3.2226,0.8228 1.43989,0.79993 2.23982,2.23982 0.82279,1.43988 0.82279,3.29116 0,1.82843 -0.79993,3.26831 -0.79994,1.43988 -2.23982,2.26268 -1.41703,0.79993 -3.24546,0.79993 z m 0,-2.05698 q 1.16562,0 2.07984,-0.54852 0.93706,-0.54853 1.43988,-1.50845 0.52567,-0.98278 0.52567,-2.21697 0,-1.23419 -0.52567,-2.21696 -0.50282,-0.98278 -1.43988,-1.53131 -0.91422,-0.54853 -2.07984,-0.54853 -1.16562,0 -2.10269,0.54853 -0.91421,0.54853 -1.43988,1.53131 -0.52567,0.98277 -0.52567,2.21696 0,1.23419 0.52567,2.21697 0.52567,0.95992 1.43988,1.50845 0.93707,0.54852 2.10269,0.54852 z M 171.3477,186.1518 q 0.47997,0 0.77709,0.31998 0.31997,0.29712 0.31997,0.77708 0,0.47996 -0.31997,0.79993 -0.29712,0.29712 -0.77709,0.29712 h -4.91389 v 14.46741 q 0,0.50282 -0.34283,0.84565 -0.34283,0.34283 -0.84564,0.34283 -0.50282,0 -0.84565,-0.34283 -0.34283,-0.34283 -0.34283,-0.84565 v -14.46741 h -4.93675 q -0.47996,0 -0.79993,-0.29712 -0.29712,-0.31997 -0.29712,-0.79993 0,-0.47996 0.29712,-0.77708 0.31997,-0.31998 0.79993,-0.31998 z m -21.91181,17.85 q -0.50282,0 -0.84565,-0.34283 -0.31997,-0.34283 -0.31997,-0.84565 v -15.47304 q 0,-0.50282 0.34283,-0.84565 0.34283,-0.34283 0.82279,-0.34283 0.50282,0 0.84565,0.34283 0.34283,0.34283 0.34283,0.84565 v 14.28457 h 8.27362 q 0.50281,0 0.84564,0.34283 0.34283,0.34283 0.34283,0.84564 0,0.50282 -0.34283,0.84565 -0.34283,0.34283 -0.84564,0.34283 z m -6.12237,-1.96556 q 0.34283,0.36569 0.34283,0.79994 0,0.45711 -0.34283,0.79994 -0.36568,0.36568 -0.79993,0.36568 -0.4114,0 -0.82279,-0.36568 l -0.93707,-0.93707 q -2.28553,1.5313 -5.30243,1.5313 -2.65122,0 -4.73105,-1.16562 -2.05698,-1.16562 -3.19975,-3.24545 -1.14276,-2.10269 -1.14276,-4.75391 0,-2.65121 1.14276,-4.73105 1.14277,-2.07983 3.19975,-3.24545 2.07983,-1.16562 4.73105,-1.16562 2.62836,0 4.68534,1.16562 2.07983,1.16562 3.22259,3.24545 1.16563,2.07984 1.16563,4.73105 0,1.80557 -0.54853,3.35973 -0.52567,1.55417 -1.53131,2.74264 z m -7.86222,0.0457 q 2.05698,0 3.65685,-1.02848 l -2.19411,-2.19411 q -0.36569,-0.4114 -0.36569,-0.8228 0,-0.43425 0.36569,-0.79993 0.36568,-0.36569 0.82279,-0.36569 0.4571,0 0.79993,0.36569 l 2.26268,2.28553 q 1.43988,-1.89699 1.43988,-4.45679 0,-1.96555 -0.8685,-3.56542 -0.8685,-1.59988 -2.42266,-2.51409 -1.53131,-0.91421 -3.49686,-0.91421 -1.96556,0 -3.51972,0.91421 -1.53131,0.91421 -2.39981,2.51409 -0.8685,1.59987 -0.8685,3.56542 0,1.96556 0.8685,3.56543 0.8685,1.59987 2.42266,2.53694 1.55417,0.91421 3.49687,0.91421 z m -18.29568,2.14841 q -2.21696,0 -4.04539,-1.00563 -1.80557,-1.00563 -2.49123,-2.62836 -0.11427,-0.27426 -0.11427,-0.45711 0,-0.34283 0.2514,-0.59423 0.25141,-0.27427 0.68566,-0.36569 0.0686,-0.0229 0.22856,-0.0229 0.36568,0 0.68566,0.22856 0.34283,0.2057 0.50281,0.57138 0.4114,0.89136 1.62273,1.50845 1.21133,0.61709 2.67407,0.61709 1.71415,0 2.90263,-0.77708 1.18847,-0.79993 1.18847,-2.17125 0,-1.30275 -1.00563,-2.21697 -1.00564,-0.93706 -3.06261,-1.14276 -2.83406,-0.27426 -4.45679,-1.64558 -1.62273,-1.39418 -1.62273,-3.47401 0,-1.46274 0.82279,-2.51408 0.84565,-1.0742 2.28554,-1.62273 1.46274,-0.57138 3.26831,-0.57138 1.96555,0 3.31402,0.79993 1.34846,0.79994 2.28553,2.28553 0.27426,0.43425 0.27426,0.82279 0,0.50282 -0.45711,0.82279 -0.2514,0.15999 -0.59423,0.15999 -0.34283,0 -0.63995,-0.15999 -0.29712,-0.18284 -0.45711,-0.47996 -0.61709,-1.02849 -1.55416,-1.55416 -0.91421,-0.54853 -2.33124,-0.54853 -1.73701,0 -2.81121,0.68566 -1.07419,0.66281 -1.07419,1.94271 0,1.18847 0.95992,1.98841 0.95992,0.79993 3.42829,1.05134 2.74264,0.27427 4.25109,1.66844 1.50845,1.37132 1.50845,3.63399 0,1.64559 -0.89135,2.83406 -0.89136,1.16562 -2.37696,1.75986 -1.46274,0.57138 -3.15403,0.57138 z" />
  </g>
</svg>
