<?xml version="1.0" encoding="iso-8859-1"?>
<!-- Generator: Adobe Illustrator 19.0.0, SVG Export Plug-In . SVG Version: 6.00 Build 0)  -->
<svg version="1.1" id="Capa_1" xmlns="http://www.w3.org/2000/svg" xmlns:xlink="http://www.w3.org/1999/xlink" x="0px" y="0px"
	 viewBox="0 0 512 512" style="enable-background:new 0 0 512 512;" xml:space="preserve">
<circle style="fill:#983262;" cx="256" cy="256" r="256"/>
<path style="fill:#662E57;" d="M512,256c0-6.552-0.249-13.046-0.732-19.474L399.707,124.965l-284.37,74.408l67.24,66.274
	l-10.736,0.067l-64.376-64.376v8.818l10.197,55.894l82.429,82.35l-6.461,3.816l-86.166-86.166v7.325l17.103,98.483l-55.265-20.436
	l140.563,156.423C224.831,510.569,240.248,512,256,512C397.385,512,512,397.385,512,256z"/>
<path style="fill:#E0E0E0;" d="M256,90.664c-0.081,0-0.16,0.001-0.241,0.001c-0.031,0-0.062,0-0.092,0l0,0
	c-81.88,0.056-148.202,20.611-148.202,45.961v47.945c0,25.384,66.501,45.962,148.535,45.962s148.535-20.578,148.535-45.962v-47.945
	C404.535,111.242,338.034,90.664,256,90.664z"/>
<ellipse style="fill:#FFFFFF;" cx="256" cy="136.63" rx="148.53" ry="45.962"/>
<path style="fill:#E0E0E0;" d="M256,90.664c-0.111,0-0.222,0.001-0.333,0.001v91.921c0.111,0,0.222,0.001,0.333,0.001
	c82.034,0,148.535-20.578,148.535-45.962S338.034,90.664,256,90.664z"/>
<path style="fill:#C0C0C0;" d="M256,182.588c-0.111,0-0.222-0.001-0.333-0.001v47.945c0.111,0,0.222,0.001,0.333,0.001
	c82.034,0,148.535-20.578,148.535-45.962v-47.945C404.535,162.01,338.034,182.588,256,182.588z"/>
<path style="fill:#E0E0E0;" d="M107.465,249.283c0,25.384,66.502,45.962,148.535,45.962s148.535-20.578,148.535-45.962v-47.945
	c0,25.384-66.502,45.962-148.535,45.962s-148.535-20.578-148.535-45.962V249.283z"/>
<path style="fill:#C0C0C0;" d="M256,247.3c-0.111,0-0.222-0.001-0.333-0.001v47.945c0.111,0,0.222,0.001,0.333,0.001
	c82.034,0,148.535-20.578,148.535-45.962v-47.945C404.535,226.722,338.034,247.3,256,247.3z"/>
<path style="fill:#E0E0E0;" d="M107.465,313.995c0,25.384,66.502,45.962,148.535,45.962s148.535-20.578,148.535-45.962V266.05
	c0,25.384-66.502,45.962-148.535,45.962s-148.535-20.578-148.535-45.962V313.995z"/>
<path style="fill:#C0C0C0;" d="M256,312.012c-0.111,0-0.222-0.001-0.333-0.001v47.945c0.111,0,0.222,0.001,0.333,0.001
	c82.034,0,148.535-20.578,148.535-45.962V266.05C404.535,291.434,338.034,312.012,256,312.012z"/>
<path style="fill:#E0E0E0;" d="M107.465,378.708c0,25.384,66.502,45.962,148.535,45.962s148.535-20.578,148.535-45.962v-47.945
	c0,25.384-66.502,45.962-148.535,45.962s-148.535-20.578-148.535-45.962V378.708z"/>
<path style="fill:#C0C0C0;" d="M256,376.725c-0.111,0-0.222-0.001-0.333-0.001v47.945c0.111,0,0.222,0.001,0.333,0.001
	c82.034,0,148.535-20.578,148.535-45.962v-47.945C404.535,356.146,338.034,376.725,256,376.725z"/>
<path style="fill:#47AB4B;" d="M200.399,166.06L200.399,166.06H81.02l0,0c0,17.459-14.153,31.612-31.612,31.612H43.88v97.315
	c0,24.698,12.102,47.828,32.392,61.91l64.438,44.722l64.438-44.722c20.29-14.082,32.392-37.212,32.392-61.91v-97.315h-5.528
	C214.552,197.672,200.399,183.519,200.399,166.06z"/>
<path style="fill:#2B9153;" d="M140.71,401.619l64.438-44.722c20.29-14.082,32.392-37.212,32.392-61.91v-97.315h-5.528
	c-17.459,0-31.612-14.153-31.612-31.612l0,0h-59.69V401.619z"/>
<path style="fill:#97CC52;" d="M186.659,193.173L186.659,193.173H94.76l0,0c0,13.44-10.895,24.335-24.335,24.335h-4.256v74.913
	c0,19.013,9.316,36.818,24.936,47.659l49.605,34.427l49.605-34.427c15.619-10.84,24.936-28.646,24.936-47.659v-74.913h-4.256
	C197.554,217.507,186.659,206.612,186.659,193.173z"/>
<path style="fill:#60C344;" d="M140.71,374.507l49.605-34.427c15.619-10.84,24.936-28.646,24.936-47.659v-74.913h-4.256
	c-13.44,0-24.335-10.895-24.335-24.335l0,0h-45.95V374.507z"/>
<g>
</g>
<g>
</g>
<g>
</g>
<g>
</g>
<g>
</g>
<g>
</g>
<g>
</g>
<g>
</g>
<g>
</g>
<g>
</g>
<g>
</g>
<g>
</g>
<g>
</g>
<g>
</g>
<g>
</g>
</svg>
