<svg xmlns="http://www.w3.org/2000/svg" xmlns:svg="http://www.w3.org/2000/svg" id="svg4" width="250" height="250" version="1.1"><metadata id="metadata10"/><path id="path2-3" fill="#c5c5c5" fill-opacity="1" stroke-width="16.241" d="m 185.03615,136.31325 v 48.72291 h -48.72291 v 16.24093 h 48.72291 V 250 h 16.24094 V 201.27709 H 250 V 185.03616 H 201.27709 V 136.31325 Z M 120.19922,10 c -44.632848,0 -80.828126,18.08955 -80.828126,40.414062 0,0.646624 0.324054,1.244002 0.388672,1.890626 H 39.371094 V 195.72461 l 0.90625,5.77148 c 4.526324,19.56022 38.360459,34.82032 79.921876,34.82032 18.62135,0 35.67987,-3.06997 49.25781,-8.21094 v -17.50781 c -10.95269,5.22461 -27.63426,9.55273 -49.25781,9.55273 -39.298237,0 -62.318714,-14.28913 -64.177736,-22.29101 l -0.484375,-2.11719 v -0.0664 -121.240233 c 19.568307,11.472958 41.991178,17.157854 64.662111,16.392578 22.66464,0.784826 45.087,-4.87764 64.66211,-16.328125 v 46.19922 h 16.16406 V 52.304688 h -0.38672 c 0.0647,-0.646624 0.38672,-1.244001 0.38672,-1.890626 C 201.02539,28.08955 164.83207,10 120.19922,10 Z m 0,16.683594 c 39.47607,0 64.66211,15.647734 64.66211,23.730468 0,8.082738 -25.18604,23.730469 -64.66211,23.730469 -39.476073,0 -64.662111,-15.583069 -64.662111,-23.730469 0,-8.147396 25.186038,-23.730468 64.662111,-23.730468 z m 65.5,110.255856 v 48.09766 h 15.32617 v -48.09766 z m 0,64.33789 v 18.58008 c 7.73767,-5.29672 12.84991,-11.56825 14.42187,-18.36133 l 0.0352,-0.21875 z"/></svg>