<svg viewBox="0 0 448 448" xmlns="http://www.w3.org/2000/svg" style="enable-background:new 0 0 448 448;" xml:space="preserve">
  <g>
    <path fill="#c5c5c5" d="m11.28125 64.960938c9.589844 6.738281 20.167969 11.949218 31.359375 15.4375 35.394531 10.976562 72.308594 16.242187 109.359375 15.601562 19.800781.054688 39.585938-1.285156 59.199219-4 17.046875-2.292969 33.839843-6.179688 50.160156-11.601562 26.71875-9.117188 42.640625-21.199219 42.640625-32.398438 0-22.71875-62.398438-48-152-48s-152 25.28125-152 48c.96875 7.082031 5.125 13.328125 11.28125 16.960938zm0 0"/>
    <path fill="#c5c5c5" d="m152 176c89.601562 0 152-25.28125 152-48v-51.839844c-11.28125 8.613282-23.976562 15.191406-37.519531 19.441406-37.054688 11.484376-75.691407 17.023438-114.480469 16.398438-20.660156.054688-41.300781-1.363281-61.761719-4.238281-17.90625-2.425781-35.554687-6.5-52.71875-12.160157-13.542969-4.25-26.238281-10.828124-37.519531-19.441406v51.839844c0 22.71875 62.398438 48 152 48zm0 0"/>
    <path fill="#c5c5c5" d="m152 256c89.601562 0 152-25.28125 152-48v-51.519531c-28.71875 23.199219-91.761719 35.519531-152 35.519531s-123.28125-12.320312-152-35.519531v51.519531c0 22.71875 62.398438 48 152 48zm0 0"/>
    <path fill="#c5c5c5" d="m344 240c-57.4375 0-104 46.5625-104 104s46.5625 104 104 104 104-46.5625 104-104c-.054688-57.414062-46.585938-103.945312-104-104zm8 112v64h-16v-64h-72v-16h72v-72h16v72h72v16zm0 0"/>
    <path fill="#c5c5c5" d="m152 352c-60.238281 0-123.28125-12.320312-152-35.519531v51.519531c0 22.71875 62.398438 48 152 48 30.121094.226562 60.167969-3.078125 89.519531-9.839844-11.058593-18.144531-17.078125-38.914062-17.441406-60.160156-23.8125 4.027344-47.925781 6.035156-72.078125 6zm0 0"/>
    <path fill="#c5c5c5" d="m152 336c24.460938.070312 48.875-2.046875 72.960938-6.320312 3.273437-27.636719 16.125-53.253907 36.320312-72.398438-35.53125 10.128906-72.335938 15.085938-109.28125 14.71875-60.238281 0-123.28125-12.320312-152-35.519531v51.519531c0 22.71875 62.398438 48 152 48zm0 0"/>
  </g>
</svg>