<svg version="1.1" id="Layer_1" xmlns="http://www.w3.org/2000/svg" xmlns:xlink="http://www.w3.org/1999/xlink" x="0px" y="0px"
	 viewBox="0 0 490.1 490.1" style="enable-background:new 0 0 490.1 490.1;" xml:space="preserve">
<g>
	<g>
		<path fill="#C5C5C5" d="M473.15,376.625c22.6-22.6,22.6-59.3,0-81.8c-22.6-22.6-59.3-22.6-81.8,0l-30.7,30.7c-8.5,8.5-22.4,8.5-30.9,0l-54.8-54.9
			c-3.4-3.4-8-5.3-12.7-5.3c-4.8,0-9.4,1.9-12.7,5.3c-15,15-34.9,23.3-56.2,23.3c-21.3,0-41.2-8.3-56.2-23.3l-49.6-49.6l112.3-112.3
			l49.6,49.6c13.8,13.8,22,32.1,23.1,51.5c0.6,9.6,8.5,17,18,17c0.3,0,0.7,0,1.1,0c9.9-0.6,17.5-9.1,16.9-19
			c-1.6-28.3-13.6-54.9-33.6-74.9l-49.6-49.6l5.5-5.5c7-7,7-18.4,0-25.5c-7-7-18.4-7-25.5,0l-35.3,35.3l-61.2-61.2
			c-7-7-18.4-7-25.5,0c-7,7-7,18.4,0,25.5l61.2,61.2l-52.6,52.6l-61.2-61.2c-7-7-18.4-7-25.5,0c-7,7-7,18.4,0,25.5l61.3,61.2
			l-35.3,35.3c-7,7-7,18.4,0,25.5c3.5,3.5,8.1,5.3,12.7,5.3c4.6,0,9.2-1.8,12.7-5.3l5.5-5.5l49.6,49.6
			c21.8,21.8,50.8,33.8,81.6,33.8c24.7,0,48.3-7.7,67.9-22.1l43.1,43.1c11.3,11.3,26.1,16.9,40.9,16.9s29.6-5.6,40.9-16.9l30.7-30.7
			c8.5-8.5,22.4-8.5,30.9,0s8.5,22.4,0,30.9l-30.7,30.7c-10.9,10.9-16.9,25.4-16.9,40.9s6,30,16.9,40.9c3.5,3.5,8.1,5.3,12.7,5.3
			c4.6,0,9.2-1.8,12.7-5.3c7-7,7-18.4,0-25.5c-4.1-4.1-6.4-9.6-6.4-15.4s2.3-11.3,6.4-15.4L473.15,376.625z"/>
	</g>
</g>
</svg>