<svg xmlns="http://www.w3.org/2000/svg" width="250" height="250" version="1.1"><path fill="#424242" d="m 36.484815,45.336331 c 0,-24.447896 39.637093,-44.2575909 88.515175,-44.2575909 48.87808,0 88.51519,19.8096949 88.51519,44.2575909 0,0.708127 -0.35406,1.363134 -0.42487,2.071261 h 0.42487 V 204.46893 l -0.99136,6.31999 c -4.95687,21.42067 -42.00932,38.13234 -87.52383,38.13234 -45.514499,0 -82.56696,-16.71167 -87.523801,-38.13234 l -0.991373,-6.31999 V 47.407592 h 0.424868 c -0.07076,-0.708127 -0.424869,-1.363134 -0.424869,-2.071261 z M 124.99999,19.348273 c -43.230817,0 -70.812146,17.065726 -70.812146,25.988058 0,8.922333 27.581329,25.988057 70.812146,25.988057 43.23082,0 70.81216,-17.136536 70.81216,-25.988057 0,-8.85152 -27.58134,-25.988058 -70.81216,-25.988058 z m -70.812146,185.138367 0.531099,2.3191 c 2.035842,8.76299 27.244974,24.41249 70.281047,24.41249 43.03609,0 68.24521,-15.6495 70.28106,-24.41249 l 0.5311,-2.3191 V 71.713851 C 174.37517,84.253442 149.82036,90.453395 124.99999,89.593921 100.17272,90.431986 75.617383,84.207242 54.187844,71.64304 v 132.77279 z"/></svg>