<?xml version="1.0" encoding="UTF-8" standalone="no"?>
<svg
   xmlns:dc="http://purl.org/dc/elements/1.1/"
   xmlns:cc="http://creativecommons.org/ns#"
   xmlns:rdf="http://www.w3.org/1999/02/22-rdf-syntax-ns#"
   xmlns:svg="http://www.w3.org/2000/svg"
   xmlns="http://www.w3.org/2000/svg"
   xmlns:sodipodi="http://sodipodi.sourceforge.net/DTD/sodipodi-0.dtd"
   xmlns:inkscape="http://www.inkscape.org/namespaces/inkscape"
   version="1.1"
   viewBox="0 0 464 464"
   style="enable-background:new 0 0 464 464;"
   xml:space="preserve"
   id="svg4549"
   sodipodi:docname="database-sidebar.svg"
   inkscape:version="0.92.4 (unknown)"><metadata
   id="metadata4555"><rdf:RDF><cc:Work
       rdf:about=""><dc:format>image/svg+xml</dc:format><dc:type
         rdf:resource="http://purl.org/dc/dcmitype/StillImage" /></cc:Work></rdf:RDF></metadata><defs
   id="defs4553" /><sodipodi:namedview
   pagecolor="#ffffff"
   bordercolor="#666666"
   borderopacity="1"
   objecttolerance="10"
   gridtolerance="10"
   guidetolerance="10"
   inkscape:pageopacity="0"
   inkscape:pageshadow="2"
   inkscape:window-width="959"
   inkscape:window-height="1025"
   id="namedview4551"
   showgrid="false"
   inkscape:zoom="0.70710678"
   inkscape:cx="183.06061"
   inkscape:cy="340.5189"
   inkscape:window-x="960"
   inkscape:window-y="0"
   inkscape:window-maximized="0"
   inkscape:current-layer="svg4549" />
  <path
   d="m 232,5.6041965 c -93.90028,0 -193.688693,21.8589045 -193.688693,62.4540145 V 395.94178 c 0,40.59511 99.788413,62.45402 193.688693,62.45402 93.90028,0 193.68869,-21.85891 193.68869,-62.45402 V 68.058211 C 425.68869,27.463101 325.90028,5.6041965 232,5.6041965 Z M 410.1936,395.94178 c 0,19.55591 -67.79105,46.84051 -178.1936,46.84051 -110.40256,0 -178.193598,-27.2846 -178.193598,-46.84051 V 312.3627 c 0.178194,0.14052 0.41062,0.26543 0.588814,0.40595 1.758693,1.30373 3.610357,2.57623 5.609225,3.8175 0.317649,0.19517 0.666289,0.38253 0.983938,0.5777 1.805179,1.07733 3.711076,2.13124 5.694449,3.16173 l 1.619236,0.84313 c 2.285527,1.13979 4.648529,2.24835 7.158734,3.32568 l 1.479782,0.60893 c 2.200304,0.92119 4.470336,1.81409 6.810095,2.67771 l 1.913645,0.71042 c 2.73779,0.97877 5.559833,1.92534 8.46807,2.84165 l 1.960128,0.59332 c 2.533449,0.78067 5.113382,1.5067 7.747552,2.23273 0.69728,0.18736 1.37906,0.38253 2.07634,0.56208 3.09902,0.82752 6.29391,1.60819 9.58371,2.34203 0.77476,0.17955 1.54951,0.3435 2.32427,0.51524 2.8511,0.64016 5.74868,1.25396 8.69275,1.8424 l 2.06084,0.41376 c 3.42926,0.66064 6.91856,1.28811 10.46694,1.88142 0.85998,0.14833 1.73545,0.28105 2.60318,0.42157 3.09902,0.50744 6.28326,0.99146 9.483,1.44425 l 1.91364,0.27323 c 3.67234,0.52013 7.38051,0.98658 11.12548,1.39741 l 2.82011,0.31227 c 3.43506,0.37473 6.88757,0.7231 10.35847,1.04611 l 1.41005,0.13271 c 3.87377,0.3435 7.74755,0.63235 11.62132,0.89778 l 2.89759,0.19517 c 3.68783,0.2342 7.3805,0.43717 11.07899,0.60892 l 0.92196,0.0468 c 3.95125,0.17175 7.9054,0.30154 11.86149,0.39034 l 2.89759,0.0625 c 3.98998,0.0781 7.97997,0.13271 11.96221,0.13271 3.98224,0 7.97223,-0.0546 11.96221,-0.13271 l 2.89759,-0.0625 c 3.9619,-0.0937 7.91508,-0.22347 11.86149,-0.39034 l 0.92196,-0.0468 c 3.70333,-0.17175 7.396,-0.37472 11.07899,-0.60892 l 2.89759,-0.19517 c 3.87377,-0.26543 7.74754,-0.55428 11.62132,-0.89778 l 1.41005,-0.13271 c 3.48156,-0.31715 6.93406,-0.6665 10.35847,-1.04611 l 2.82011,-0.31227 c 3.74497,-0.43718 7.45314,-0.90265 11.12548,-1.39741 l 1.91364,-0.27323 c 3.19974,-0.45279 6.35299,-0.93681 9.483,-1.44425 0.86773,-0.14052 1.7432,-0.27324 2.60318,-0.42157 3.54353,-0.59331 7.03187,-1.22078 10.46693,-1.88142 l 2.06085,-0.41376 c 2.94407,-0.58258 5.84165,-1.19736 8.69275,-1.8424 0.77476,-0.17174 1.54951,-0.33569 2.32426,-0.51524 3.26947,-0.74945 6.46436,-1.53012 9.58372,-2.34203 0.69728,-0.17955 1.37906,-0.37472 2.07634,-0.56208 2.64967,-0.72603 5.2296,-1.46767 7.74755,-2.23273 l 1.96013,-0.59332 c 2.91308,-0.91046 5.73609,-1.858 8.46807,-2.84165 l 1.91365,-0.71042 c 2.33975,-0.86362 4.60979,-1.75652 6.81009,-2.67771 l 1.47978,-0.60893 c 2.49471,-1.07733 4.87321,-2.18589 7.15874,-3.32568 l 1.61923,-0.84313 c 1.98338,-1.03049 3.87378,-2.0844 5.69445,-3.16173 0.31765,-0.19517 0.66629,-0.38253 0.98394,-0.5777 1.99887,-1.24127 3.87377,-2.51377 5.60922,-3.8175 0.1782,-0.14052 0.41062,-0.26543 0.58882,-0.40595 z m 0,-109.29452 c 0,19.55591 -67.79105,46.84051 -178.1936,46.84051 -110.40256,0 -178.193598,-27.2846 -178.193598,-46.84051 v -83.57909 c 0.178194,0.14052 0.41062,0.26543 0.588814,0.40595 1.758693,1.30373 3.610357,2.57623 5.609225,3.8175 0.317649,0.19517 0.666289,0.38254 0.983938,0.5777 1.805179,1.07734 3.711076,2.13125 5.694449,3.16174 l 1.619236,0.84313 c 2.285527,1.13978 4.648529,2.24834 7.158734,3.32567 l 1.479782,0.60893 c 2.200304,0.9212 4.470336,1.8141 6.810095,2.67772 l 1.913645,0.71041 c 2.73779,0.97877 5.559833,1.92534 8.46807,2.84166 l 1.960128,0.59331 c 2.533449,0.78068 5.113382,1.50671 7.747552,2.23273 0.69728,0.18737 1.37906,0.38253 2.07634,0.56209 3.09902,0.82751 6.29391,1.60819 9.58371,2.34202 0.77476,0.17956 1.54951,0.3435 2.32427,0.51525 2.8511,0.64015 5.74868,1.25396 8.69275,1.84239 l 2.06084,0.41376 c 3.42926,0.6665 6.91856,1.29299 10.46694,1.88143 0.85998,0.14833 1.73545,0.28104 2.60318,0.42156 3.09902,0.50744 6.28326,0.99146 9.483,1.44425 l 1.91364,0.27324 c 3.67234,0.52012 7.38051,0.98658 11.12548,1.39741 l 2.82011,0.31227 c 3.43506,0.37472 6.88757,0.7231 10.35847,1.0461 l 1.41005,0.13272 c 3.87377,0.34349 7.74755,0.63234 11.62132,0.89777 l 2.89759,0.19517 c 3.68783,0.2342 7.3805,0.43718 11.07899,0.60893 l 0.92196,0.0468 c 3.95125,0.17175 7.9054,0.30154 11.86149,0.39034 l 2.89759,0.0624 c 3.98998,0.0781 7.97997,0.13272 11.96221,0.13272 3.98224,0 7.97223,-0.0547 11.96221,-0.13272 l 2.89759,-0.0624 c 3.9619,-0.0937 7.91508,-0.22347 11.86149,-0.39034 l 0.92196,-0.0468 c 3.70333,-0.17175 7.396,-0.37473 11.07899,-0.60893 l 2.89759,-0.19517 c 3.87377,-0.26543 7.74754,-0.55428 11.62132,-0.89777 l 1.41005,-0.13272 c 3.48156,-0.31715 6.93406,-0.6665 10.35847,-1.0461 l 2.82011,-0.31227 c 3.74497,-0.43718 7.45314,-0.90266 11.12548,-1.39741 l 1.91364,-0.27324 c 3.19974,-0.45279 6.35299,-0.93681 9.483,-1.44425 0.86773,-0.14052 1.7432,-0.27323 2.60318,-0.42156 3.54353,-0.59331 7.03187,-1.22078 10.46693,-1.88143 l 2.06085,-0.41376 c 2.94407,-0.58843 5.84165,-1.20224 8.69275,-1.84239 0.77476,-0.17175 1.54951,-0.33569 2.32426,-0.51525 3.26947,-0.74944 6.46436,-1.53012 9.58372,-2.34202 0.69728,-0.17956 1.37906,-0.37472 2.07634,-0.56209 2.64967,-0.72602 5.2296,-1.46767 7.74755,-2.23273 l 1.96013,-0.59331 c 2.91308,-0.91632 5.73609,-1.86289 8.46807,-2.84166 l 1.91365,-0.71041 c 2.33975,-0.86362 4.60979,-1.75652 6.81009,-2.67772 l 1.47978,-0.60893 c 2.49471,-1.07733 4.87321,-2.18589 7.15874,-3.32567 l 1.61923,-0.84313 c 1.98338,-1.03049 3.87378,-2.0844 5.69445,-3.16174 0.31765,-0.19516 0.66629,-0.38253 0.98394,-0.5777 1.99887,-1.24127 3.87377,-2.51377 5.60922,-3.8175 0.1782,-0.14052 0.41062,-0.26543 0.58882,-0.40595 z m 0,-109.29453 c 0,19.51688 -67.79105,46.84051 -178.1936,46.84051 -110.40256,0 -178.193598,-27.32363 -178.193598,-46.84051 V 93.773651 c 0.178194,0.140522 0.41062,0.265429 0.588814,0.405952 1.758693,1.30373 3.610357,2.57623 5.609225,3.817501 0.317649,0.19517 0.666289,0.38253 0.983938,0.5777 1.805179,1.07733 3.711076,2.131236 5.694449,3.122696 l 1.619236,0.84313 c 2.285527,1.13979 4.648529,2.24834 7.158734,3.32568 l 1.479782,0.60892 c 2.200304,0.9212 4.470336,1.8141 6.810095,2.67772 l 1.913645,0.71041 c 2.73779,0.97877 5.559833,1.92534 8.46807,2.84166 l 1.960128,0.59331 c 2.533449,0.78068 5.113382,1.50671 7.747552,2.23273 0.69728,0.18737 1.37906,0.38254 2.07634,0.56209 3.09902,0.82752 6.29391,1.60819 9.58371,2.34203 0.77476,0.17955 1.54951,0.34349 2.32427,0.51524 2.8511,0.64016 5.74868,1.25396 8.69275,1.8424 l 2.06084,0.41375 c 3.42926,0.6665 6.91856,1.293 10.46694,1.88143 0.85998,0.14833 1.73545,0.28104 2.60318,0.42157 3.09902,0.50743 6.28326,0.99145 9.483,1.44424 l 1.91364,0.27324 c 3.67234,0.52013 7.38051,0.98658 11.12548,1.39741 l 2.82011,0.31227 c 3.43506,0.37472 6.88757,0.7231 10.35847,1.0461 l 1.41005,0.13272 c 3.87377,0.3435 7.74755,0.63235 11.62132,0.89778 l 2.89759,0.19516 c 3.68783,0.23421 7.3805,0.43718 11.07899,0.60893 l 0.92196,0.0468 c 3.95125,0.17175 7.9054,0.30154 11.86149,0.39034 l 2.89759,0.0624 c 3.98998,0.0781 7.97997,0.13272 11.96221,0.13272 3.98224,0 7.97223,-0.0547 11.96221,-0.13272 l 2.89759,-0.0624 c 3.9619,-0.0937 7.91508,-0.22347 11.86149,-0.39034 l 0.92196,-0.0468 c 3.70333,-0.17175 7.396,-0.37472 11.07899,-0.60893 l 2.89759,-0.19516 c 3.87377,-0.26543 7.74754,-0.55428 11.62132,-0.89778 l 1.41005,-0.13272 c 3.48156,-0.31715 6.93406,-0.6665 10.35847,-1.0461 l 2.82011,-0.31227 c 3.74497,-0.43718 7.45314,-0.90266 11.12548,-1.39741 l 1.91364,-0.27324 c 3.19974,-0.45279 6.35299,-0.93681 9.483,-1.44424 0.86773,-0.14053 1.7432,-0.27324 2.60318,-0.42157 3.54353,-0.59331 7.03187,-1.22078 10.46693,-1.88143 l 2.06085,-0.41375 c 2.94407,-0.58844 5.84165,-1.20224 8.69275,-1.8424 0.77476,-0.17175 1.54951,-0.33569 2.32426,-0.51524 3.26947,-0.74945 6.46436,-1.53013 9.58372,-2.34203 0.69728,-0.17955 1.37906,-0.37472 2.07634,-0.56209 2.64967,-0.72602 5.2296,-1.46766 7.74755,-2.23273 l 1.96013,-0.59331 c 2.91308,-0.91632 5.73609,-1.86289 8.46807,-2.84166 l 1.91365,-0.71041 c 2.33975,-0.86362 4.60979,-1.75652 6.81009,-2.67772 l 1.47978,-0.60892 c 2.49471,-1.07734 4.87321,-2.18589 7.15874,-3.32568 l 1.61923,-0.84313 c 1.98338,-1.03049 3.87378,-2.084397 5.69445,-3.122696 0.31765,-0.195171 0.66629,-0.382531 0.98394,-0.5777 1.99887,-1.24127 3.87377,-2.51377 5.60922,-3.817501 0.1782,-0.140522 0.41062,-0.26543 0.58882,-0.405951 z M 232,114.89872 C 121.59744,114.89872 53.806402,87.614125 53.806402,68.058211 53.806402,48.502297 121.59744,21.2177 232,21.2177 c 110.40255,0 178.1936,27.284597 178.1936,46.840511 0,19.555914 -67.79105,46.840509 -178.1936,46.840509 z"
   id="path4547"
   style="stroke:#060000;stroke-width:7.55905512;stroke-miterlimit:4;stroke-dasharray:none;stroke-opacity:1;stroke-linecap:round;fill:#060000;fill-opacity:1"
   inkscape:connector-curvature="0" />
</svg>