<svg version="1.1" id="Layer_1" xmlns="http://www.w3.org/2000/svg" xmlns:xlink="http://www.w3.org/1999/xlink" x="0px" y="0px"
	 viewBox="0 0 512 512" style="enable-background:new 0 0 512 512;" xml:space="preserve">
 <g>
  <g stroke="null" id="svg_1">
   <g stroke="null" id="svg_2">
    <path stroke="null" id="svg_3" d="m388.20868,201.920339l0,-48.079005c0,-27.619554 -66.509131,-42.068777 -132.208672,-42.068777s-132.208672,14.449223 -132.208672,42.068777l0,48.079005c0,5.552756 2.792153,10.546631 7.622082,15.024443c-4.829929,4.477811 -7.622082,9.471686 -7.622082,15.024443l0,48.079005c0,5.549376 2.788209,10.539871 7.611378,15.015992c-4.823168,4.475558 -7.611378,9.466616 -7.611378,15.015992l0,48.079005c0,27.618991 66.509131,42.068214 132.208672,42.068214s132.208672,-14.449223 132.208672,-42.068777l0,-48.079005c0,-5.549376 -2.788209,-10.539871 -7.611378,-15.015992c4.823168,-4.476121 7.611378,-9.466616 7.611378,-15.015992l0,-48.079005c0,-5.552756 -2.792153,-10.546631 -7.622082,-15.024443c4.829929,-4.477248 7.622082,-9.471123 7.622082,-15.023879zm-132.208672,132.203038c-66.033631,0 -108.170578,-16.02164 -108.170578,-27.054476c0,-0.529585 0.184228,-1.080016 0.376343,-1.629883c25.249943,11.004666 66.67702,16.665593 107.794235,16.665593s82.544292,-5.660927 107.794235,-16.665593c0.192115,0.55043 0.376343,1.100298 0.376343,1.629883c0,11.032836 -42.136947,27.054476 -108.170578,27.054476zm0,-78.105918c-66.033631,0 -108.170578,-16.02164 -108.170578,-27.048278c0,-0.536346 0.183665,-1.093537 0.380851,-1.651291c25.250506,11.002976 66.675894,16.66334 107.789728,16.66334s82.539222,-5.660364 107.789728,-16.66334c0.197186,0.557755 0.380851,1.114946 0.380851,1.651291c0,11.027202 -42.136947,27.048278 -108.170578,27.048278zm0,-72.131184c-67.019561,0 -108.170578,-17.499971 -108.170578,-30.047195c0,-12.547224 41.151018,-30.047195 108.170578,-30.047195s108.170578,17.500535 108.170578,30.047195c0,12.547224 -41.151018,30.047195 -108.170578,30.047195z" fill="#000000"/>
   </g>
  </g>
 </g>
</svg>
