<svg viewBox="-48 0 464 464" xmlns="http://www.w3.org/2000/svg" style="enable-background:new -48 0 464 464;" xml:space="preserve">
	<path fill="#C5C5C5" d="m0 347.078125v44.921875c0 34.769531 73.9375 72 184 72s184-37.230469 184-72v-44.921875c-30.238281 31.410156-100.351562 52.921875-184 52.921875s-153.761719-21.511719-184-52.921875zm0 0"/>
	<path fill="#C5C5C5" d="m0 267.078125v44.921875c0 34.769531 73.9375 72 184 72s184-37.230469 184-72v-44.921875c-30.238281 31.410156-100.351562 52.921875-184 52.921875s-153.761719-21.511719-184-52.921875zm0 0"/>
	<path fill="#C5C5C5" d="m0 187.078125v44.921875c0 34.769531 73.9375 72 184 72s184-37.230469 184-72v-44.921875c-30.238281 31.410156-100.351562 52.921875-184 52.921875s-153.761719-21.511719-184-52.921875zm0 0"/>
	<path fill="#C5C5C5" d="m368 72c0-39.765625-82.378906-72-184-72s-184 32.234375-184 72 82.378906 72 184 72 184-32.234375 184-72zm0 0"/>
	<path fill="#C5C5C5" d="m0 107.078125v44.921875c0 34.769531 73.9375 72 184 72s184-37.230469 184-72v-44.921875c-30.238281 31.410156-100.351562 52.921875-184 52.921875s-153.761719-21.511719-184-52.921875zm0 0"/>
</svg>