<svg xmlns="http://www.w3.org/2000/svg" xmlns:xlink="http://www.w3.org/1999/xlink" version="1.1" x="0px" y="0px" viewBox="0 0 365.653 365.653" style="enable-background:new 0 0 365.653 365.653;" xml:space="preserve">
<g>
	<path fill="#424242" d="M0.053,30.08l50.24,50.24c-16.427,26.24-26.027,57.067-26.027,90.347c0,47.147,19.307,89.6,50.24,120.427l-50.24,50.24     h128v-128l-47.68,47.68c-23.253-23.147-37.653-55.04-37.653-90.347c0-21.333,5.333-41.387,14.613-59.093l172.48,172.48     c-5.227,2.773-10.667,5.227-16.32,7.253v44.48c17.067-4.373,32.96-11.413,47.573-20.48l50.347,50.347l27.2-27.2L27.147,2.88     L0.053,30.08z" ></path>
	<path fill="#424242" d="M152.267,50.133V5.547c-17.067,4.373-32.96,11.413-47.573,20.48l31.253,31.253     C141.173,54.613,146.613,52.053,152.267,50.133z" ></path>
	<path fill="#424242" d="M365.6,0h-128v128l47.68-47.68c23.253,23.147,37.653,55.04,37.653,90.347c0,21.333-5.333,41.387-14.613,59.093     l31.253,31.253C356,234.773,365.6,203.947,365.6,170.667c0-47.147-19.307-89.6-50.24-120.427L365.6,0z" ></path>
</g>
</svg>