<svg xmlns="http://www.w3.org/2000/svg" width="16" height="16" viewBox="0 0 16 16"><path fill="#f48771" d="M 13.85745,4.11915 C 13.75715,3.8047 13.60675,3.51531 13.40625,3.25099 l 1.3535,-1.36036 -0.6152,-0.61523 -1.3604,1.35352 c -0.2643,-0.20053 -0.5537,-0.35092 -0.8681,-0.45118 -0.3099,-0.10481 -0.6312,-0.15722 -0.9639,-0.15722 -0.4056,0 -0.79751,0.07747 -1.17577,0.23242 -0.3737,0.15495 -0.7041,0.37598 -0.99121,0.66308 l -1.54492,1.55176 4.3271,4.32715 1.5518,-1.54492 c 0.2871,-0.28711 0.5081,-0.61751 0.6631,-0.99121 0.1549,-0.37826 0.2324,-0.77018 0.2324,-1.17578 0,-0.33269 -0.0524,-0.65397 -0.1572,-0.96387 z m -0.8887,1.80469 c -0.1094,0.26432 -0.2666,0.49902 -0.4717,0.7041 L 11.56735,7.55763 8.47755,4.46778 9.40724,3.5381 c 0.20508,-0.20508 0.43978,-0.36231 0.7041,-0.47168 0.26891,-0.11394 0.54911,-0.1709 0.84081,-0.1709 0.3008,0 0.5833,0.05924 0.8477,0.17773 0.2643,0.11393 0.4944,0.27116 0.6904,0.47168 0.2005,0.19596 0.3577,0.42611 0.4717,0.69043 0.1185,0.26432 0.1777,0.54688 0.1777,0.84766 0,0.29166 -0.057,0.57194 -0.1709,0.84082 z M 8.14455,10.917 9.62795,9.37208 9.01271,8.75001 7.52248,10.3018 5.6631,8.44239 7.15334,6.89063 6.53127,6.2754 5.04787,7.82032 4.43263,7.20509 2.88087,8.75001 C 2.59377,9.03712 2.37274,9.3698 2.21779,9.74806 2.06284,10.12175 1.98537,10.5114 1.98537,10.917 c 0,0.3327 0.05013,0.6563 0.15039,0.9707 0.10482,0.3099 0.25748,0.597 0.45801,0.8613 l -1.35352,1.3604 0.61523,0.6152 1.36036,-1.3535 c 0.26432,0.2005 0.55143,0.3532 0.86132,0.458 0.31446,0.1003 0.63802,0.1504 0.97071,0.1504 0.4056,0 0.79524,-0.0775 1.16894,-0.2324 0.37826,-0.155 0.71094,-0.376 0.99805,-0.6631 l 1.54492,-1.5518 z m -2.2627,2.0234 c -0.26432,0.1094 -0.54232,0.1641 -0.83398,0.1641 -0.30078,0 -0.58561,-0.057 -0.8545,-0.1709 C 3.92905,12.8197 3.69663,12.6647 3.49611,12.4688 3.30015,12.2682 3.1452,12.0358 3.03127,11.7715 2.91733,11.5026 2.86037,11.2178 2.86037,10.917 c 0,-0.2917 0.05468,-0.5697 0.16406,-0.83398 C 3.13836,9.81414 3.29787,9.57716 3.50295,9.37208 L 4.43263,8.44239 7.52248,11.5322 6.59279,12.4619 C 6.38771,12.667 6.15073,12.8265 5.88185,12.9404 Z"/></svg>