<svg xmlns="http://www.w3.org/2000/svg" width="50" height="50" viewBox="0 0 50 50"><path fill="#c5c5c5" d="m 38.619356,15.667922 -4.810709,4.806249 -1.590872,-1.570676 2.903493,-2.916958 h -6.731429 c -0.892649,0 -1.748735,0.354602 -2.379935,0.985802 -0.631199,0.631199 -0.985787,1.487271 -0.985787,2.37992 0,0.892649 0.354588,1.748736 0.985787,2.379935 0.6312,0.631185 1.487286,0.985787 2.379935,0.985787 h 1.247559 v 2.24388 h -1.234109 c -1.442869,-0.06465 -2.805236,-0.683287 -3.803436,-1.727137 -0.998196,-1.043864 -1.555291,-2.432527 -1.555291,-3.876855 0,-1.444313 0.557095,-2.832977 1.555291,-3.876855 0.9982,-1.043864 2.360567,-1.662497 3.803436,-1.727067 h 6.731443 l -2.916957,-2.896776 1.590872,-1.5863702 4.810709,4.8129802 z M 6.4907662,34.27134 C 4.3560097,33.51775 2.457321,31.98701 1.2909571,30.07921 -0.42978158,27.26462 -0.43039094,22.739 1.2895771,19.91678 c 0.656676,-1.0775 2.1021195,-2.55418 3.1595385,-3.22781 3.0859398,-1.9659 7.5522934,-1.96119 10.6480614,0.0112 1.83414,1.1686 3.641689,3.58272 4.125331,5.50969 l 0.138635,0.55237 h 15.079333 c 11.457371,0 15.137916,0.0586 15.323232,0.2439 0.315054,0.31505 0.315054,1.43288 0,1.74794 -0.141876,0.14187 -0.822027,0.24389 -1.625991,0.24389 h -1.382088 v 3.00808 c 0,2.06862 -0.07617,3.08425 -0.243899,3.25198 -0.176278,0.17628 -1.609212,0.2439 -5.168322,0.2439 -4.205748,0 -4.971032,-0.0466 -5.243811,-0.31939 -0.26084,-0.26084 -0.319392,-0.85699 -0.319392,-3.25198 V 24.99796 H 27.650269 19.52033 v 0.92103 c 0,1.04153 -0.632786,3.09638 -1.281119,4.16019 -0.656673,1.0775 -2.102116,2.55418 -3.159535,3.22781 -2.378296,1.51509 -5.9065317,1.91122 -8.5889161,0.96432 z m 6.4338758,-2.55585 c 1.525054,-0.75078 2.973748,-2.24574 3.709216,-3.8277 0.449902,-0.9677 0.541053,-1.452 0.544719,-2.89407 0.0039,-1.54707 -0.0659,-1.87469 -0.654386,-3.07007 -0.794826,-1.61452 -2.25081,-3.04234 -3.869985,-3.79511 -0.970921,-0.45139 -1.446512,-0.54032 -2.8898033,-0.54032 -1.4432873,0 -1.918879,0.0889 -2.8897995,0.54032 -1.6191779,0.75277 -3.0751619,2.18059 -3.8699855,3.79511 -0.5884834,1.19538 -0.6583166,1.523 -0.6543854,3.07007 0.00366,1.43885 0.095148,1.92705 0.5407249,2.88535 1.8481083,3.97471 6.2972556,5.67586 10.0336848,3.83642 z M 44.519904,27.1321 v -2.13411 h -1.016241 -1.016245 v 1.38209 c 0,1.55228 -0.189872,1.86989 -1.117865,1.86989 -0.927993,0 -1.117868,-0.31761 -1.117868,-1.86989 v -1.38209 h -1.016241 -1.016242 v 2.13411 2.13411 h 3.150351 3.150351 z"/></svg>