<svg xmlns="http://www.w3.org/2000/svg" xmlns:xlink="http://www.w3.org/1999/xlink" version="1.1" viewBox="0 0 512.009 512.009" style="enable-background:new 0 0 512.009 512.009;" xml:space="preserve" width="16" height="22">
<g>
	<path style="fill:#D9D2CC;" d="M138.924,13.668c-38.175,1.074-73.644,16.938-99.87,44.67C12.827,86.07-1.019,122.37,0.058,160.495   c1.081,38.147,16.959,73.591,44.711,99.801c27.75,26.208,64.051,40.046,102.215,38.965c13.665-0.388,27.056-2.717,39.937-6.938   l211.986,198.933c5.117,4.801,11.797,7.334,18.805,7.134l56.188-1.592c0.468-0.014,0.932-0.049,1.391-0.104l17.615-0.45   c6.11-0.157,11.688-3.073,15.301-8.002c2.503-3.414,3.802-7.437,3.802-11.538c0-1.817-0.255-3.65-0.773-5.453   c-4.104-14.281-15.044-51.06-17.194-58.284c-1.307-4.396-3.752-8.389-7.071-11.551c-23.448-22.331-79.292-75.406-91.402-85.947   c-4.745-4.12-10.53-4.764-20.193-4.521l-0.033-0.863c-0.332-8.457-3.68-16.534-9.43-22.743c-0.137-0.148-0.277-0.294-0.421-0.437   c-7.465-7.436-17.405-10.717-29.543-9.752c-1.552,0.124-3.116-0.962-3.719-2.579l-5.102-13.688   c-4.304-11.543-15.472-19.333-27.772-19.384l-0.212-0.001l-0.667-6.248c-0.166-1.553-0.573-3.069-1.207-4.496l-3.69-8.308   c-0.634-1.428-1.487-2.747-2.528-3.912l-13.289-14.857c5.856-16.564,8.568-33.787,8.072-51.269   c-1.081-38.142-16.958-73.579-44.709-99.784C213.377,26.422,177.08,12.586,138.924,13.668z M159.581,131.695   c0.011,0.4,0.017,0.8,0.017,1.197c0,22.467-17.944,41.056-40.541,41.696c-11.137,0.315-21.733-3.729-29.835-11.387   c-8.101-7.656-12.736-18.007-13.052-29.144c-0.656-23.032,17.528-42.241,40.523-42.894   C139.69,90.514,158.929,108.696,159.581,131.695z"/>
	<path style="fill:#CDC8C4;" d="M48.88,48.884L96.84,96.844c5.849-3.426,12.612-5.474,19.853-5.68   c22.997-0.65,42.235,17.531,42.887,40.53c0.011,0.4,0.017,0.8,0.017,1.197c0,7.636-2.077,14.821-5.701,21.009l342.026,342.026   c4.904-0.883,9.275-3.584,12.284-7.688c2.503-3.414,3.802-7.437,3.802-11.538c0-1.817-0.255-3.65-0.773-5.453   c-4.104-14.281-15.044-51.06-17.194-58.284c-1.307-4.396-3.752-8.389-7.071-11.551c-23.448-22.331-79.292-75.406-91.402-85.947   c-4.745-4.12-10.53-4.764-20.193-4.521l-0.033-0.863c-0.332-8.457-3.68-16.534-9.43-22.743c-0.137-0.148-0.277-0.294-0.421-0.437   c-7.465-7.436-17.405-10.717-29.543-9.752c-1.552,0.124-3.116-0.962-3.719-2.579l-5.102-13.688   c-4.304-11.543-15.472-19.333-27.772-19.384l-0.212-0.001l-0.667-6.248c-0.166-1.553-0.573-3.069-1.207-4.496l-3.69-8.308   c-0.634-1.428-1.487-2.747-2.528-3.912l-13.289-14.857c5.856-16.564,8.568-33.787,8.072-51.269   c-1.081-38.142-16.958-73.579-44.709-99.784c-27.748-26.203-64.045-40.039-102.201-38.957   C105.327,14.614,73.829,27.02,48.88,48.884z"/>
</g>
</svg>
