<svg version="1.1" xmlns="http://www.w3.org/2000/svg" xmlns:xlink="http://www.w3.org/1999/xlink" x="0px" y="0px"
	 viewBox="0 0 545.027 545.027" style="enable-background:new 0 0 545.027 545.027;"
	 xml:space="preserve">
<g>
	<path fill="#424242" d="M540.743,281.356c-4.179-8.754-10.568-15.464-19.123-20.12c-8.566-4.665-17.987-6.995-28.264-6.995h-54.819v-45.683
		c0-17.511-6.283-32.548-18.843-45.111c-12.566-12.562-27.604-18.842-45.111-18.842H219.268v-9.136
		c0-17.511-6.283-32.548-18.842-45.107c-12.564-12.562-27.6-18.846-45.111-18.846H63.953c-17.511,0-32.548,6.283-45.111,18.846
		C6.28,102.922,0,117.959,0,135.47v274.088c0,17.508,6.28,32.545,18.842,45.104c12.563,12.565,27.6,18.849,45.111,18.849h310.636
		c12.748,0,26.07-3.285,39.971-9.855c13.895-6.563,24.928-14.894,33.113-24.981L531.9,335.037
		c8.754-11.037,13.127-22.453,13.127-34.26C545.031,293.923,543.603,287.458,540.743,281.356z M36.547,135.474
		c0-7.611,2.663-14.084,7.993-19.414c5.326-5.327,11.799-7.993,19.414-7.993h91.365c7.615,0,14.084,2.663,19.414,7.993
		c5.327,5.33,7.993,11.803,7.993,19.414v18.274c0,7.616,2.667,14.087,7.994,19.414s11.798,7.994,19.412,7.994h164.452
		c7.611,0,14.089,2.666,19.418,7.993c5.324,5.326,7.99,11.799,7.99,19.414v45.682H182.725c-12.941,0-26.269,3.284-39.973,9.851
		c-13.706,6.567-24.744,14.893-33.12,24.986l-73.085,89.931V135.474z M503.345,311.917l-83.939,103.637
		c-4.753,5.899-11.512,10.943-20.272,15.125c-8.754,4.189-16.939,6.283-24.551,6.283H63.953c-10.088,0-15.131-3.333-15.131-9.992
		c0-3.046,1.713-6.852,5.14-11.427l83.938-103.633c4.949-5.903,11.75-10.896,20.413-14.989c8.658-4.093,16.796-6.14,24.411-6.14
		h310.631c10.088,0,15.129,3.333,15.129,9.993C508.485,304.019,506.778,307.728,503.345,311.917z"/>
</g>
</svg>
