<?xml version="1.0" encoding="UTF-8" standalone="no"?>
<svg
   xmlns:dc="http://purl.org/dc/elements/1.1/"
   xmlns:cc="http://creativecommons.org/ns#"
   xmlns:rdf="http://www.w3.org/1999/02/22-rdf-syntax-ns#"
   xmlns:svg="http://www.w3.org/2000/svg"
   xmlns="http://www.w3.org/2000/svg"
   id="svg8"
   version="1.1"
   viewBox="0 0 132.29168 42.872957"
   height="162.03954"
   width="500">
  <defs
     id="defs2">
    <filter
       id="filter1623"
       style="color-interpolation-filters:sRGB;">
      <feFlood
         id="feFlood1613"
         result="flood"
         flood-color="rgb(255,255,255)"
         flood-opacity="0.498039" />
      <feComposite
         id="feComposite1615"
         result="composite1"
         operator="in"
         in2="SourceGraphic"
         in="flood" />
      <feGaussianBlur
         id="feGaussianBlur1617"
         result="blur"
         stdDeviation="0"
         in="composite1" />
      <feOffset
         id="feOffset1619"
         result="offset"
         dy="0.1"
         dx="0.1" />
      <feComposite
         id="feComposite1621"
         result="fbSourceGraphic"
         operator="over"
         in2="offset"
         in="SourceGraphic" />
      <feColorMatrix
         id="feColorMatrix1637"
         values="0 0 0 -1 0 0 0 0 -1 0 0 0 0 -1 0 0 0 0 1 0"
         in="fbSourceGraphic"
         result="fbSourceGraphicAlpha" />
      <feFlood
         in="fbSourceGraphic"
         result="flood"
         flood-color="rgb(255,255,255)"
         flood-opacity="0.498039"
         id="feFlood1639" />
      <feComposite
         result="composite1"
         operator="in"
         in="flood"
         id="feComposite1641"
         in2="fbSourceGraphic" />
      <feGaussianBlur
         result="blur"
         stdDeviation="0"
         in="composite1"
         id="feGaussianBlur1643" />
      <feOffset
         result="offset"
         dy="0.1"
         dx="0.1"
         id="feOffset1645" />
      <feComposite
         result="composite2"
         operator="over"
         in="fbSourceGraphic"
         id="feComposite1647"
         in2="offset" />
    </filter>
    <filter
       id="filter1635"
       style="color-interpolation-filters:sRGB;">
      <feFlood
         id="feFlood1625"
         result="flood"
         flood-color="rgb(255,255,255)"
         flood-opacity="0.498039" />
      <feComposite
         id="feComposite1627"
         result="composite1"
         operator="in"
         in2="SourceGraphic"
         in="flood" />
      <feGaussianBlur
         id="feGaussianBlur1629"
         result="blur"
         stdDeviation="0"
         in="composite1" />
      <feOffset
         id="feOffset1631"
         result="offset"
         dy="0.1"
         dx="0.1" />
      <feComposite
         id="feComposite1633"
         result="fbSourceGraphic"
         operator="over"
         in2="offset"
         in="SourceGraphic" />
      <feColorMatrix
         id="feColorMatrix1649"
         values="0 0 0 -1 0 0 0 0 -1 0 0 0 0 -1 0 0 0 0 1 0"
         in="fbSourceGraphic"
         result="fbSourceGraphicAlpha" />
      <feFlood
         in="fbSourceGraphic"
         result="flood"
         flood-color="rgb(255,255,255)"
         flood-opacity="0.498039"
         id="feFlood1651" />
      <feComposite
         result="composite1"
         operator="in"
         in="flood"
         id="feComposite1653"
         in2="fbSourceGraphic" />
      <feGaussianBlur
         result="blur"
         stdDeviation="0"
         in="composite1"
         id="feGaussianBlur1655" />
      <feOffset
         result="offset"
         dy="0.1"
         dx="0.1"
         id="feOffset1657" />
      <feComposite
         result="composite2"
         operator="over"
         in="fbSourceGraphic"
         id="feComposite1659"
         in2="offset" />
    </filter>
  </defs>
  <metadata
     id="metadata5">
    <rdf:RDF>
      <cc:Work
         rdf:about="">
        <dc:format>image/svg+xml</dc:format>
        <dc:type
           rdf:resource="http://purl.org/dc/dcmitype/StillImage" />
        <dc:title></dc:title>
      </cc:Work>
    </rdf:RDF>
  </metadata>
  <g
     transform="translate(-21.417986,-242.11539)"
     id="layer1">
    <g
       transform="matrix(0.07703735,0,0,0.07703735,26.709654,243.83031)"
       id="g2278">
      <circle
         style="fill:#983262"
         cx="256"
         cy="256"
         r="256"
         id="circle2178" />
      <path
         style="fill:#662e57"
         d="m 512,256 c 0,-6.552 -0.249,-13.046 -0.732,-19.474 l -111.561,-111.561 -284.37,74.408 67.24,66.274 -10.736,0.067 -64.376,-64.376 v 8.818 l 10.197,55.894 82.429,82.35 -6.461,3.816 -86.166,-86.166 v 7.325 l 17.103,98.483 -55.265,-20.436 140.563,156.423 C 224.831,510.569 240.248,512 256,512 397.385,512 512,397.385 512,256 Z"
         id="path2180" />
      <path
         style="fill:#e0e0e0"
         d="m 256,90.664 c -0.081,0 -0.16,0.001 -0.241,0.001 -0.031,0 -0.062,0 -0.092,0 v 0 c -81.88,0.056 -148.202,20.611 -148.202,45.961 v 47.945 c 0,25.384 66.501,45.962 148.535,45.962 82.034,0 148.535,-20.578 148.535,-45.962 V 136.626 C 404.535,111.242 338.034,90.664 256,90.664 Z"
         id="path2182" />
      <ellipse
         style="fill:#ffffff"
         cx="256"
         cy="136.63"
         rx="148.53"
         ry="45.962002"
         id="ellipse2184" />
      <path
         style="fill:#e0e0e0"
         d="m 256,90.664 c -0.111,0 -0.222,0.001 -0.333,0.001 v 91.921 c 0.111,0 0.222,10e-4 0.333,10e-4 82.034,0 148.535,-20.578 148.535,-45.962 0,-25.384 -66.501,-45.961 -148.535,-45.961 z"
         id="path2186" />
      <path
         style="fill:#c0c0c0"
         d="m 256,182.588 c -0.111,0 -0.222,-0.001 -0.333,-0.001 v 47.945 c 0.111,0 0.222,10e-4 0.333,10e-4 82.034,0 148.535,-20.578 148.535,-45.962 v -47.945 c 0,25.384 -66.501,45.962 -148.535,45.962 z"
         id="path2188" />
      <path
         style="fill:#e0e0e0"
         d="m 107.465,249.283 c 0,25.384 66.502,45.962 148.535,45.962 82.033,0 148.535,-20.578 148.535,-45.962 v -47.945 c 0,25.384 -66.502,45.962 -148.535,45.962 -82.033,0 -148.535,-20.578 -148.535,-45.962 z"
         id="path2190" />
      <path
         style="fill:#c0c0c0"
         d="m 256,247.3 c -0.111,0 -0.222,-0.001 -0.333,-0.001 v 47.945 c 0.111,0 0.222,10e-4 0.333,10e-4 82.034,0 148.535,-20.578 148.535,-45.962 v -47.945 c 0,25.384 -66.501,45.962 -148.535,45.962 z"
         id="path2192" />
      <path
         style="fill:#e0e0e0"
         d="m 107.465,313.995 c 0,25.384 66.502,45.962 148.535,45.962 82.033,0 148.535,-20.578 148.535,-45.962 V 266.05 c 0,25.384 -66.502,45.962 -148.535,45.962 -82.033,0 -148.535,-20.578 -148.535,-45.962 z"
         id="path2194" />
      <path
         style="fill:#c0c0c0"
         d="m 256,312.012 c -0.111,0 -0.222,-10e-4 -0.333,-10e-4 v 47.945 c 0.111,0 0.222,10e-4 0.333,10e-4 82.034,0 148.535,-20.578 148.535,-45.962 V 266.05 c 0,25.384 -66.501,45.962 -148.535,45.962 z"
         id="path2196" />
      <path
         style="fill:#e0e0e0"
         d="m 107.465,378.708 c 0,25.384 66.502,45.962 148.535,45.962 82.033,0 148.535,-20.578 148.535,-45.962 v -47.945 c 0,25.384 -66.502,45.962 -148.535,45.962 -82.033,0 -148.535,-20.578 -148.535,-45.962 z"
         id="path2198" />
      <path
         style="fill:#c0c0c0"
         d="m 256,376.725 c -0.111,0 -0.222,-0.001 -0.333,-0.001 v 47.945 c 0.111,0 0.222,0.001 0.333,0.001 82.034,0 148.535,-20.578 148.535,-45.962 v -47.945 c 0,25.383 -66.501,45.962 -148.535,45.962 z"
         id="path2200" />
      <path
         style="fill:#47ab4b"
         d="m 200.399,166.06 v 0 H 81.02 v 0 c 0,17.459 -14.153,31.612 -31.612,31.612 H 43.88 v 97.315 c 0,24.698 12.102,47.828 32.392,61.91 l 64.438,44.722 64.438,-44.722 c 20.29,-14.082 32.392,-37.212 32.392,-61.91 v -97.315 h -5.528 c -17.46,0 -31.613,-14.153 -31.613,-31.612 z"
         id="path2202" />
      <path
         style="fill:#2b9153"
         d="m 140.71,401.619 64.438,-44.722 c 20.29,-14.082 32.392,-37.212 32.392,-61.91 v -97.315 h -5.528 c -17.459,0 -31.612,-14.153 -31.612,-31.612 v 0 h -59.69 z"
         id="path2204" />
      <path
         style="fill:#97cc52"
         d="m 186.659,193.173 v 0 H 94.76 v 0 c 0,13.44 -10.895,24.335 -24.335,24.335 h -4.256 v 74.913 c 0,19.013 9.316,36.818 24.936,47.659 l 49.605,34.427 49.605,-34.427 c 15.619,-10.84 24.936,-28.646 24.936,-47.659 v -74.913 h -4.256 c -13.441,-0.001 -24.336,-10.896 -24.336,-24.335 z"
         id="path2206" />
      <path
         style="fill:#60c344"
         d="m 140.71,374.507 49.605,-34.427 c 15.619,-10.84 24.936,-28.646 24.936,-47.659 v -74.913 h -4.256 c -13.44,0 -24.335,-10.895 -24.335,-24.335 v 0 h -45.95 z"
         id="path2208" />
      <g
         id="g2210" />
      <g
         id="g2212" />
      <g
         id="g2214" />
      <g
         id="g2216" />
      <g
         id="g2218" />
      <g
         id="g2220" />
      <g
         id="g2222" />
      <g
         id="g2224" />
      <g
         id="g2226" />
      <g
         id="g2228" />
      <g
         id="g2230" />
      <g
         id="g2232" />
      <g
         id="g2234" />
      <g
         id="g2236" />
      <g
         id="g2238" />
    </g>
    <text
       id="text2282"
       y="266.61365"
       x="72.63739"
       style="font-style:normal;font-variant:normal;font-weight:bold;font-stretch:normal;font-size:14.07095814px;line-height:1.25;font-family:sans-serif;-inkscape-font-specification:'sans-serif Bold';letter-spacing:0px;word-spacing:0px;fill:#222222;fill-opacity:0.94117647;stroke:none;stroke-width:0.66145834;stroke-opacity:1;paint-order:stroke fill markers;stroke-miterlimit:4;stroke-dasharray:none;stroke-dashoffset:0;stroke-linejoin:round;stroke-linecap:butt;filter:url(#filter1635)"
       xml:space="preserve"><tspan
         style="font-style:normal;font-variant:normal;font-weight:bold;font-stretch:normal;font-size:15.82982731px;line-height:241.24998474;font-family:Comfortaa;-inkscape-font-specification:'Comfortaa Bold';fill:#222222;stroke:none;stroke-width:0.66145834;stroke-opacity:1;fill-opacity:0.94117647;paint-order:stroke fill markers;stroke-miterlimit:4;stroke-dasharray:none;stroke-dashoffset:0;stroke-linejoin:round;stroke-linecap:butt;"
         y="266.61365"
         x="72.63739"
         id="tspan2280">SQLTools</tspan></text>
    <text
       id="text2286"
       y="272.13364"
       x="74.363586"
       style="font-style:normal;font-variant:normal;font-weight:normal;font-stretch:normal;font-size:15.24095058px;line-height:1.25;font-family:'URW Gothic';-inkscape-font-specification:'URW Gothic';letter-spacing:0px;word-spacing:0px;fill:#222222;fill-opacity:0.94117647;stroke:none;stroke-width:0.66145834;stroke-opacity:1;paint-order:stroke fill markers;stroke-miterlimit:4;stroke-dasharray:none;stroke-dashoffset:0;stroke-linejoin:round;stroke-linecap:butt;filter:url(#filter1623)"
       xml:space="preserve"><tspan
         style="font-style:normal;font-variant:normal;font-weight:normal;font-stretch:normal;font-size:4.06425333px;font-family:Comfortaa;-inkscape-font-specification:Comfortaa;fill:#222222;stroke:none;stroke-width:0.66145834;stroke-opacity:1;fill-opacity:0.94117647;paint-order:stroke fill markers;stroke-miterlimit:4;stroke-dasharray:none;stroke-dashoffset:0;stroke-linejoin:round;stroke-linecap:butt;"
         y="272.13364"
         x="74.363586"
         id="tspan2284">Database management done right.</tspan></text>
  </g>
</svg>
