<svg xmlns="http://www.w3.org/2000/svg" width="16" height="16" viewBox="0 0 16 16"><path fill="#424242" d="M 3,0 V 3 H 0 V 4 H 3 V 7 H 4 V 4 H 7 V 3 H 4 V 0 Z m 2,1 v 1 h 4 v 4 h 4 v 2.6660156 h 1 V 5 L 13.900391,4.5996094 10.5,1.0996094 10.199219,1 Z M 4.4863281,13 c -2.9908854,2 -1.4954427,1 0,0 z m 0,0 H 4 V 8 H 3 v 5.5 L 3.5,14 h 0.9863281 z m 0,1 c -2.9908854,1.333333 -1.4954427,0.666667 0,0 z M 10,2 12.902344,5 H 10 Z"/><path fill="#d67e00" d="M 6.5214844 9.3613281 C 6.1210214 9.3613281 5.7921007 9.4983362 5.5351562 9.7714844 C 5.2805266 10.044632 5.1523438 10.380787 5.1523438 10.78125 C 5.1523438 11.341435 5.3695023 11.750506 5.8046875 12.009766 C 5.9181134 12.076896 6.037471 12.127749 6.1601562 12.160156 C 6.2851562 12.190249 6.405382 12.212312 6.5234375 12.228516 C 6.6414931 12.24472 6.7356048 12.265553 6.8027344 12.291016 C 6.9092158 12.332682 6.9909579 12.410373 7.0488281 12.521484 C 7.1090135 12.630281 7.1386719 12.744503 7.1386719 12.867188 C 7.1386719 13.307003 6.9335214 13.527344 6.5214844 13.527344 C 6.2228732 13.527344 5.7941985 13.485677 5.2363281 13.402344 L 5.2363281 14.25 C 5.71318 14.324074 6.1418547 14.361328 6.5214844 14.361328 C 6.9705584 14.361328 7.3335503 14.22432 7.6113281 13.951172 C 7.8891059 13.678023 8.0273438 13.316262 8.0273438 12.867188 C 8.0273438 12.702836 8.0052804 12.545356 7.9589844 12.392578 C 7.912688 12.2398 7.8293548 12.087963 7.7089844 11.9375 C 7.588614 11.787037 7.4351852 11.66522 7.25 11.570312 C 7.1180555 11.500867 6.9437934 11.448422 6.7285156 11.416016 C 6.5155528 11.381296 6.3804978 11.350046 6.3203125 11.322266 C 6.1351273 11.238932 6.0410156 11.062211 6.0410156 10.789062 C 6.0410156 10.726561 6.0486113 10.66247 6.0625 10.597656 C 6.078704 10.532842 6.1039499 10.46875 6.1386719 10.40625 C 6.1733942 10.343751 6.2242478 10.29326 6.2890625 10.253906 C 6.3561922 10.214553 6.4335214 10.195312 6.5214844 10.195312 C 6.8154658 10.195312 7.2421874 10.22497 7.8046875 10.285156 L 7.8046875 9.4472656 C 7.260706 9.3893956 6.8339844 9.3613281 6.5214844 9.3613281 z M 10.142578 9.3613281 C 9.7398002 9.3613281 9.4092882 9.483507 9.1523438 9.7265625 C 8.8953993 9.9673031 8.7214988 10.273438 8.6289062 10.648438 C 8.5640916 10.905382 8.53125 11.310402 8.53125 11.861328 C 8.53125 12.412254 8.5640916 12.815322 8.6289062 13.072266 C 8.7191841 13.421803 8.8770255 13.715061 9.1015625 13.951172 C 9.3284144 14.187283 9.6241319 14.321108 9.9921875 14.353516 C 10.073206 14.564164 10.152127 14.720776 10.228516 14.820312 C 10.453053 15.10735 10.759549 15.25 11.148438 15.25 C 11.326678 15.25 11.50977 15.242406 11.697266 15.228516 L 11.697266 14.396484 C 11.419486 14.408058 11.273652 14.414063 11.259766 14.414062 C 11.141712 14.414062 11.058379 14.402053 11.009766 14.378906 C 10.961153 14.355758 10.915074 14.291667 10.871094 14.1875 C 11.072483 14.078703 11.240741 13.926866 11.375 13.732422 C 11.511571 13.535663 11.608142 13.315322 11.666016 13.072266 C 11.723889 12.813007 11.753906 12.409939 11.753906 11.861328 C 11.753906 11.310402 11.721063 10.905382 11.65625 10.648438 C 11.563657 10.273438 11.389757 9.9673031 11.132812 9.7265625 C 10.875868 9.483507 10.545355 9.3613281 10.142578 9.3613281 z M 12.361328 9.4160156 L 12.361328 14.304688 L 15.25 14.304688 L 15.25 13.472656 L 13.25 13.472656 L 13.25 9.4160156 L 12.361328 9.4160156 z M 10.142578 10.195312 C 10.323133 10.195312 10.468967 10.268229 10.580078 10.414062 C 10.693504 10.557581 10.770833 10.740307 10.8125 10.964844 C 10.84722 11.154659 10.865234 11.453921 10.865234 11.861328 C 10.865234 12.382161 10.829572 12.752749 10.757812 12.972656 L 9.9199219 12.972656 L 9.9199219 13.482422 C 9.6907552 13.378255 9.5421007 13.137443 9.4726562 12.757812 C 9.4379342 12.567998 9.4199219 12.268735 9.4199219 11.861328 C 9.4199219 11.453921 9.4379342 11.154659 9.4726562 10.964844 C 9.5143229 10.740307 9.5900607 10.557581 9.7011719 10.414062 C 9.8145978 10.268229 9.9620224 10.195312 10.142578 10.195312 z"/></svg>