<svg xmlns="http://www.w3.org/2000/svg" width="16" height="16" fill="none" viewBox="0 0 16 16"><path fill="#424242" d="M9 6V7H7V9H6V7H4V6H6V4H7V6H9Z"/><path fill="#424242" fill-rule="evenodd" d="M15.0028 14.2949L10.7419 10.0349C11.6493 8.94554 12.1018 7.5483 12.0052 6.13383C11.9087 4.71937 11.2705 3.39658 10.2235 2.44064C9.17649 1.4847 7.80125 0.969217 6.38386 1.00142C4.96647 1.03363 3.61606 1.61104 2.61355 2.61355C1.61104 3.61606 1.03363 4.96647 1.00142 6.38386C0.969217 7.80125 1.4847 9.17649 2.44064 10.2235C3.39658 11.2705 4.71937 11.9087 6.13383 12.0052C7.5483 12.1018 8.94554 11.6493 10.0349 10.7419L14.2949 15.0028L15.0028 14.2949ZM4.01781 10.2595C4.75784 10.754 5.62786 11.0179 6.51788 11.0179C7.71095 11.0166 8.85477 10.542 9.6984 9.6984C10.542 8.85477 11.0166 7.71095 11.0179 6.51788C11.0179 5.62786 10.754 4.75784 10.2595 4.01781C9.76503 3.27779 9.06222 2.70102 8.23996 2.36042C7.41769 2.01983 6.51289 1.93071 5.63997 2.10435C4.76706 2.27798 3.96524 2.70656 3.3359 3.3359C2.70656 3.96524 2.27798 4.76706 2.10435 5.63997C1.93071 6.51289 2.01983 7.41769 2.36042 8.23996C2.70102 9.06222 3.27779 9.76503 4.01781 10.2595Z" clip-rule="evenodd"/></svg>