<svg xmlns="http://www.w3.org/2000/svg" width="50" height="50" version="1.1"><path fill="#d7dae0" d="M 25 0 C 15.139286 0 7.1425781 3.9955924 7.1425781 8.9277344 C 7.1425781 9.0705932 7.2142376 9.2028463 7.2285156 9.3457031 L 7.1425781 9.3457031 L 7.1425781 41.03125 L 7.34375 42.306641 C 7.7011247 43.851012 8.9105174 45.263482 10.710938 46.451172 L 10.710938 34.650391 L 10.710938 33.617188 L 10.714844 33.617188 L 10.714844 14.236328 C 15.038067 16.771042 19.991321 18.026495 25 17.857422 C 30.007286 18.030812 34.960438 16.77975 39.285156 14.25 C 39.311866 15.158867 39.299835 29.067722 39.296875 33.617188 L 42.857422 33.617188 L 42.857422 9.3457031 L 42.771484 9.3457031 C 42.785764 9.2028463 42.857422 9.0705932 42.857422 8.9277344 C 42.85742 3.9955924 34.860713 1.1842379e-15 25 0 z M 25 3.6855469 C 33.721429 3.6855469 39.285156 7.1420198 39.285156 8.9277344 C 39.285156 10.713448 33.721429 14.171875 25 14.171875 C 16.278571 14.171875 10.714844 10.727734 10.714844 8.9277344 C 10.714844 7.1277345 16.278571 3.6855469 25 3.6855469 z M 12.458984 35.060547 L 12.458984 35.921875 L 12.458984 48.900391 L 15.884766 48.900391 C 18.003144 48.900391 19.708185 48.385615 20.798828 47.193359 C 21.886673 46.004162 22.330078 44.230785 22.330078 41.976562 C 22.330078 40.820219 22.215685 39.812726 21.962891 38.943359 C 21.712987 38.079056 21.333366 37.335982 20.796875 36.751953 C 19.70894 35.568824 18.006611 35.060547 15.884766 35.060547 L 12.458984 35.060547 z M 22.716797 35.060547 L 22.716797 35.921875 L 22.716797 48.900391 L 31.988281 48.900391 L 31.988281 45.066406 L 26.833984 45.066406 L 26.833984 43.617188 L 31.501953 43.617188 L 31.501953 39.783203 L 26.833984 39.783203 L 26.833984 38.894531 L 31.988281 38.894531 L 31.988281 36.720703 L 34.884766 48.900391 L 39.566406 48.900391 L 42.857422 35.060547 L 38.65625 35.060547 L 37.222656 41.857422 L 35.794922 35.060547 L 31.988281 35.060547 L 31.59375 35.060547 L 22.716797 35.060547 z M 16.576172 39.025391 C 17.100888 39.073321 17.478136 39.17353 17.660156 39.445312 L 17.662109 39.447266 C 17.886911 39.781432 18.115234 40.643825 18.115234 41.96875 C 18.115234 43.305119 17.885561 44.173701 17.662109 44.505859 C 17.473397 44.786377 17.096752 44.885639 16.576172 44.933594 L 16.576172 39.025391 z"/></svg>