<svg xmlns="http://www.w3.org/2000/svg" width="50" height="50"><path fill="#d7dae0" d="M 7.142858,8.9285709 C 7.142858,3.9964289 15.139285,0 24.999999,0 c 9.860713,0 17.857143,3.9964289 17.857143,8.9285709 0,0.1428588 -0.07143,0.2750012 -0.08571,0.417858 h 0.08571 V 41.032142 l -0.199998,1.275001 C 41.65714,46.628571 34.182142,50 24.999999,50 15.817858,50 8.342857,46.628571 7.342859,42.307143 L 7.142858,41.032142 V 9.3464289 h 0.08571 C 7.214288,9.2035721 7.142858,9.0714297 7.142858,8.9285709 Z M 24.999999,3.6857134 c -8.721429,0 -14.285714,3.4428576 -14.285714,5.2428575 0,1.8000001 5.564285,5.2428571 14.285714,5.2428571 8.721429,0 14.285716,-3.457143 14.285716,-5.2428571 0,-1.7857146 -5.564287,-5.2428575 -14.285716,-5.2428575 z m -14.285714,37.3500016 0.107144,0.467858 c 0.410713,1.767854 5.496429,4.925 14.17857,4.925 8.682144,0 13.767857,-3.157146 14.178572,-4.925 l 0.107144,-0.467858 V 14.249998 c -4.324718,2.52975 -9.27843,3.780534 -14.285716,3.607144 -5.008679,0.169073 -9.962497,-1.086715 -14.285714,-3.621429 V 41.02143 Z"/></svg>