<svg xmlns="http://www.w3.org/2000/svg" width="16" height="16" viewBox="0 0 16 16"><path fill="#c5c5c5" d="M 1.5,2 1,2.5 v 11 L 1.5,14 h 13 L 15,13.5 V 2.5 L 14.5,2 Z M 2,3 H 4.2636719 V 5 H 2 Z M 5.2460938,3 H 7.5078125 V 5 H 5.2460938 Z M 8.4921875,3 H 10.753906 V 5 H 8.4921875 Z M 11.736328,3 H 14 V 5 H 11.736328 V 4.996 Z M 2,6 h 2.2636719 l 0.00391,7.004 L 2,13 Z m 2.2636719,7 h 0.00391 v 0.004 h -0.00391 V 13 H 2 Z m 0.9824219,0 v 0.004 h -0.00977 V 13 Z m 0,-7 H 14 v 7 l -8.7636762,0.004 z"/></svg>