<svg xmlns="http://www.w3.org/2000/svg" width="16" height="16" viewBox="0 0 16 16"><path fill="#c5c5c5" d="M 1.5 2 L 1 2.5 L 1 13.5 L 1.5 14 L 6.8730469 14 L 7.8671875 13.001953 L 5.2460938 13.003906 L 5.2460938 13 L 5.2363281 13 L 5.2460938 6 L 14 6 L 14 7.2285156 L 15 8.2304688 L 15 2.5 L 14.5 2 L 1.5 2 z M 2 3 L 4.2636719 3 L 4.2636719 5 L 2 5 L 2 3 z M 5.2460938 3 L 7.5078125 3 L 7.5078125 5 L 5.2460938 5 L 5.2460938 3 z M 8.4921875 3 L 10.753906 3 L 10.753906 5 L 8.4921875 5 L 8.4921875 3 z M 11.736328 3 L 14 3 L 14 5 L 11.736328 5 L 11.736328 4.9960938 L 11.736328 3 z M 2 6 L 4.2636719 6 L 4.2675781 13 L 4.2636719 13 L 4.2636719 13.003906 L 2 13 L 2 6 z M 12.5 8 C 12.0487 8.00047 11.60605 8.1237188 11.21875 8.3554688 C 10.83155 8.5872188 10.514381 8.9189163 10.300781 9.3164062 C 10.087081 9.7139062 9.9855694 10.162481 10.005859 10.613281 C 10.026259 11.064081 10.167416 11.500253 10.416016 11.876953 L 8.0605469 14.232422 L 8.7675781 14.939453 L 11.123047 12.583984 C 11.448247 12.799484 11.819731 12.936022 12.207031 12.982422 C 12.594431 13.028822 12.986616 12.984163 13.353516 12.851562 C 13.720416 12.718962 14.052112 12.50215 14.320312 12.21875 C 14.588513 11.93545 14.786238 11.59245 14.898438 11.21875 C 15.010737 10.84515 15.034397 10.450706 14.966797 10.066406 C 14.899097 9.6822063 14.742766 9.3187294 14.509766 9.0058594 C 14.276666 8.6929994 13.9738 8.440395 13.625 8.265625 C 13.2762 8.090865 12.8901 7.99939 12.5 8 z M 12.646484 9.0078125 C 12.792509 9.0221937 12.937169 9.0565163 13.074219 9.1132812 C 13.348319 9.2268212 13.583247 9.4193356 13.748047 9.6660156 C 13.912847 9.9126856 14 10.2033 14 10.5 C 14 10.8978 13.841847 11.279247 13.560547 11.560547 C 13.279247 11.841847 12.8978 12 12.5 12 C 12.2033 12 11.914569 11.912847 11.667969 11.748047 C 11.421269 11.583247 11.228734 11.348319 11.115234 11.074219 C 11.001734 10.800119 10.971397 10.497931 11.029297 10.207031 C 11.087197 9.9160312 11.229753 9.6492331 11.439453 9.4394531 C 11.649253 9.2296731 11.916031 9.0871669 12.207031 9.0292969 C 12.352481 9.0003569 12.500459 8.9934313 12.646484 9.0078125 z"/></svg>