<?xml version="1.0" encoding="UTF-8" standalone="no"?>
<svg
   xmlns:svg="http://www.w3.org/2000/svg"
   xmlns="http://www.w3.org/2000/svg"
   viewBox="0 0 24 24"
   version="1.1">
  <path
     style="fill:#c5c5c5;fill-opacity:1;stroke-width:0.92582011"
     d="M 8.9999999e-8,12 V 0 H 12 24 V 12 24 H 12 8.9999999e-8 Z M 6.857143,19.999999 V 18 H 4.2857144 1.7142858 V 19.999999 22 H 4.2857144 6.857143 Z m 8.571429,0 V 18 H 12 8.5714288 V 19.999999 22 H 12 15.428572 Z m 6.857142,0 V 18 H 19.714286 17.142858 V 19.999999 22 h 2.571428 2.571428 z M 6.857143,14 V 12 H 4.2857144 1.7142858 v 2 2.000001 H 4.2857144 6.857143 Z m 8.571429,0 V 12 H 12 8.5714288 v 2 2.000001 H 12 15.428572 Z m 6.857142,0 v -2 h -2.571428 -2.571428 v 2 2.000001 h 2.571428 2.571428 z M 6.857143,7.9999991 V 5.9999997 H 4.2857144 1.7142858 V 7.9999991 9.9999995 H 4.2857144 6.857143 Z m 8.571429,0 V 5.9999997 H 12 8.5714288 V 7.9999991 9.9999995 H 12 15.428572 Z m 6.857142,0 V 5.9999997 h -2.571428 -2.571428 v 1.9999994 2.0000004 h 2.571428 2.571428 z"/>
  <path
     style="display:inline;fill:#003f80;fill-opacity:1;stroke-width:2.26771654;stroke:#c5c5c5;stroke-opacity:1;stroke-miterlimit:4;stroke-dasharray:none;paint-order:stroke fill markers"
     d="m 23.803784,22.408701 -3.149289,-4.146015 c 1.245446,-1.515984 1.338479,-3.739197 0.09927,-5.370557 -1.449356,-1.909929 -4.174016,-2.284496 -6.086205,-0.836688 -1.91081,1.446763 -2.284877,4.167784 -0.835521,6.077715 1.084458,1.579185 3.41639,2.059212 5.174398,1.355318 l 3.159752,4.159813 c 0.456207,0.60163 0.908038,0.309001 1.284747,0.02335 0.376542,-0.284439 0.809052,-0.661304 0.352846,-1.262934 z m -4.836591,-4.711705 c -1.226386,0.927775 -2.974487,0.687459 -3.903809,-0.536667 -0.930534,-1.224295 -0.690551,-2.96997 0.535834,-3.897744 1.226386,-0.927776 2.974487,-0.68746 3.903809,0.536667 0.930534,1.224293 0.690552,2.969968 -0.535834,3.897744 z"/>
</svg>
