<svg version="1.1" id="Layer_1" xmlns="http://www.w3.org/2000/svg" xmlns:xlink="http://www.w3.org/1999/xlink" x="0px" y="0px"
	 viewBox="0 0 512 512" style="enable-background:new 0 0 512 512;" xml:space="preserve">
<g>
	<g>
		<path fill="#424242" d="M490.667,160.01V74.671C490.667,25.647,372.615,0,256,0S21.333,25.647,21.333,74.671v85.339
			c0,9.856,4.956,18.72,13.529,26.668c-8.573,7.948-13.529,16.812-13.529,26.668v85.339c0,9.85,4.949,18.708,13.51,26.653
			c-8.561,7.944-13.51,16.803-13.51,26.653v85.339C21.333,486.353,139.385,512,256,512s234.667-25.647,234.667-74.671V351.99
			c0-9.85-4.949-18.708-13.51-26.653c8.561-7.945,13.51-16.803,13.51-26.653v-85.339c0-9.856-4.956-18.72-13.529-26.668
			C485.711,178.73,490.667,169.866,490.667,160.01z M256,394.667c-117.208,0-192-28.438-192-48.021c0-0.94,0.327-1.917,0.668-2.893
			c44.818,19.533,118.35,29.581,191.332,29.581s146.514-10.048,191.332-29.581c0.341,0.977,0.668,1.953,0.668,2.893
			C448,366.229,373.208,394.667,256,394.667z M256,256.031c-117.208,0-192-28.438-192-48.01c0-0.952,0.326-1.941,0.676-2.931
			c44.819,19.53,118.348,29.577,191.324,29.577s146.505-10.047,191.324-29.577c0.35,0.99,0.676,1.979,0.676,2.931
			C448,227.594,373.208,256.031,256,256.031z M256,128C137.042,128,64,96.938,64,74.667c0-22.271,73.042-53.333,192-53.333
			s192,31.063,192,53.333C448,96.938,374.958,128,256,128z"/>
	</g>
</g>
</svg>
