<svg version="1.1" id="Capa_1" xmlns="http://www.w3.org/2000/svg" xmlns:xlink="http://www.w3.org/1999/xlink" x="0px" y="0px"
	 viewBox="0 0 384 384" xml:space="preserve">
<g>
	<g>
		<path fill="#424242" d="M64,0v80H0v144h64v160h224l96-96V0H64z M16,208V96h240v112H16z M288,361.376V288h73.376L288,361.376z M368,272h-96v96H80
			V224h192V80H80V16h288V272z"/>
	</g>
</g>
<g>
	<g>
		<path fill="#424242" d="M95.856,160.992c-0.384-1.744-1.072-3.312-2.064-4.752c-0.976-1.44-2.32-2.784-3.984-4.032
			c-1.648-1.264-3.792-2.464-6.416-3.616l-10.656-4.608c-2.944-1.2-4.864-2.528-5.76-3.984c-0.896-1.44-1.344-3.2-1.344-5.328
			c0-1.024,0.096-2.016,0.336-2.976c0.224-0.96,0.624-1.808,1.232-2.544c0.608-0.736,1.44-1.328,2.48-1.808
			c1.024-0.432,2.304-0.672,3.84-0.672c2.688,0,4.608,0.896,5.76,2.64c1.136,1.776,1.712,4.288,1.712,7.552h13.232v-1.92
			c0-3.264-0.544-6.064-1.584-8.4c-1.056-2.32-2.528-4.24-4.416-5.744c-1.888-1.52-4.128-2.592-6.72-3.264
			c-2.592-0.672-5.424-1.008-8.496-1.008c-6.592,0-11.792,1.664-15.552,4.992c-3.776,3.328-5.664,8.368-5.664,15.152
			c0,2.832,0.352,5.296,1.056,7.456c0.704,2.144,1.808,4.032,3.312,5.664c1.504,1.648,3.376,3.072,5.616,4.272
			c2.256,1.216,4.912,2.352,7.968,3.376c2.304,0.768,4.256,1.52,5.808,2.256c1.552,0.736,2.816,1.536,3.792,2.448
			c0.96,0.88,1.648,1.888,2.064,3.008c0.4,1.12,0.624,2.448,0.624,3.984c0,2.864-0.864,5.008-2.544,6.384
			c-1.696,1.376-3.584,2.064-5.712,2.064c-1.776,0-3.28-0.272-4.448-0.768c-1.184-0.512-2.144-1.216-2.848-2.128
			c-0.704-0.896-1.168-2-1.44-3.312c-0.24-1.296-0.384-2.752-0.384-4.352h0v-2H50.832v2.784c0,6.336,1.664,11.2,5.024,14.592
			c3.376,3.392,8.96,5.088,16.768,5.088c7.488,0,13.328-1.664,17.52-4.96c4.192-3.296,6.288-8.56,6.288-15.792
			C96.432,164.64,96.24,162.704,95.856,160.992z"/>
	</g>
</g>
<g>
	<g>
		<path fill="#424242" d="M149.024,179.984c2.256-3.264,3.696-7.248,4.336-12c0.64-4.736,0.96-10.016,0.96-15.824c0-5.184-0.24-9.968-0.72-14.352
			c-0.48-4.368-1.52-8.144-3.168-11.28c-1.616-3.12-3.984-5.584-7.04-7.344c-3.072-1.744-7.2-2.64-12.384-2.64
			c-5.168,0-9.312,0.896-12.368,2.64c-3.072,1.76-5.408,4.224-7.056,7.344c-1.616,3.136-2.688,6.912-3.168,11.28
			c-0.464,4.384-0.72,9.168-0.72,14.352c0,5.232,0.256,10.048,0.72,14.384c0.48,4.352,1.536,8.096,3.168,11.232
			c1.632,3.136,3.984,5.536,7.056,7.2c3.056,1.648,7.2,2.496,12.368,2.496c3.504,0,6.56-0.352,9.12-1.056l8.128,8.16l8.16-7.392
			L149.024,179.984z M140.192,163.904c-0.224,3.232-0.672,5.856-1.344,7.872s-1.632,3.472-2.88,4.416
			c-1.264,0.928-2.912,1.392-4.96,1.392c-2.048,0-3.696-0.464-4.944-1.392c-1.248-0.928-2.208-2.4-2.88-4.416
			s-1.12-4.64-1.344-7.872s-0.336-7.136-0.336-11.744c0-4.608,0.096-8.512,0.336-11.712c0.224-3.2,0.672-5.824,1.344-7.872
			c0.672-2.048,1.632-3.52,2.88-4.448c1.264-0.944,2.896-1.408,4.944-1.408c2.048,0,3.712,0.464,4.96,1.408
			c1.248,0.912,2.208,2.4,2.88,4.448s1.136,4.672,1.344,7.872s0.336,7.104,0.336,11.712
			C140.528,156.768,140.416,160.672,140.192,163.904z"/>
	</g>
</g>
<g>
	<g>
		<polygon fill="#424242" points="182.08,175.088 182.08,117.872 168.24,117.872 168.24,186.416 206.544,186.416 206.544,175.088 		"/>
	</g>
</g>
<g>
</g>
<g>
</g>
<g>
</g>
<g>
</g>
<g>
</g>
<g>
</g>
<g>
</g>
<g>
</g>
<g>
</g>
<g>
</g>
<g>
</g>
<g>
</g>
<g>
</g>
<g>
</g>
<g>
</g>
</svg>
